<?xml version="1.0" encoding="utf-8"?>
<!-- Generator: Adobe Illustrator 24.3.0, SVG Export Plug-In . SVG Version: 6.00 Build 0)  -->
<svg version="1.1" id="Layer_1" xmlns="http://www.w3.org/2000/svg" xmlns:xlink="http://www.w3.org/1999/xlink" x="0px" y="0px"
	 viewBox="0 0 126.3 107" style="enable-background:new 0 0 126.3 107;" xml:space="preserve">
<style type="text/css">
	.st0{fill:#FF4A00;}
	.st1{fill:#A42200;}
	.st2{opacity:0.45;}
	.st3{fill:#FFFFFF;}
	.st4{opacity:0.4;fill:#FF4A00;enable-background:new    ;}
	.st5{opacity:0.64;}
	.st6{fill:#A60012;}
	.st7{fill:#FF7387;}
	.st8{opacity:0.44;fill:url(#SVGID_1_);enable-background:new    ;}
	.st9{opacity:0.44;fill:url(#SVGID_2_);enable-background:new    ;}
	.st10{opacity:0.35;}
	.st11{opacity:0.7;}
	.st12{opacity:0.51;}
	.st13{fill:#E63C00;}
	.st14{opacity:0.6;}
	.st15{fill:#B1B1B1;}
	.st16{fill:#00A5DB;}
	.st17{fill:#0073C6;}
	.st18{opacity:0.5;}
	.st19{fill:#D40500;}
	.st20{font-family:'Georgia-Bold';}
	.st21{font-size:12px;}
</style>
<g>
	<g>
		<g>
			<path class="st0" d="M44.8,55.9c0,0-4.4-1-10.5-0.6c-2.3,0.2-4.6,0.5-6.8,1c-1.5,0.3-3,0.8-4.5,1.5c-1.2,0.6-2.7,1.3-2.4,2.9
				c0.1,0.9,0.8,1.3,1.7,1.1c1.8-0.5,7.7-2.2,12.9-2.1c5.2,0.1,9.1,0.7,9.1,0.7L44.8,55.9z"/>
			<g>
				<path class="st0" d="M23.3,58.1c1.8-0.5,7.7-2.2,12.9-2.1c4,0,7.2,0.4,8.5,0.6l0.1-0.7c0,0-4.4-1-10.5-0.6
					c-2.3,0.2-4.6,0.5-6.8,1c-1.5,0.3-3,0.8-4.5,1.5c-0.2,0.1-0.4,0.2-0.6,0.3C22.7,58.2,23,58.2,23.3,58.1z"/>
				<path class="st0" d="M20.6,60.7c0.1,0.9,0.8,1.3,1.7,1.1c1.8-0.5,7.7-2.2,12.9-2.1c5.2,0.1,9.1,0.7,9.1,0.7l0.2-1.3
					c-12.4-2.7-19.8,0.5-21.8,1c-1.1,0.3-1.3-0.5-1.3-1.3C20.8,59.3,20.5,59.9,20.6,60.7z"/>
			</g>
			<path class="st1" d="M21.9,62c-0.3,0-0.6-0.1-0.8-0.2c-0.3-0.2-0.6-0.6-0.6-1.1c-0.2-1.8,1.5-2.6,2.5-3.1
				c1.4-0.7,2.9-1.2,4.5-1.5c2.5-0.5,4.7-0.8,6.9-1c6-0.4,10.5,0.6,10.5,0.6c0.1,0,0.1,0.1,0.1,0.2l-0.5,4.4c0,0,0,0.1-0.1,0.1
				c0,0-0.1,0-0.1,0c0,0-3.9-0.7-9-0.7c-4.7-0.1-9.9,1.4-12.2,2c-0.3,0.1-0.5,0.1-0.7,0.2C22.2,62,22,62,21.9,62z M37.3,55.4
				c-0.9,0-1.9,0-3,0.1c-2.1,0.1-4.4,0.5-6.8,1c-1.5,0.3-3,0.8-4.4,1.5c-1.3,0.6-2.5,1.3-2.3,2.8c0.1,0.4,0.2,0.7,0.5,0.8
				c0.3,0.2,0.6,0.2,1,0.1c0.2,0,0.4-0.1,0.7-0.2c2.3-0.6,7.5-2,12.3-2c4.6,0.1,8.2,0.6,8.9,0.7l0.5-4.2
				C44,55.9,41.2,55.4,37.3,55.4z"/>
			<g>
				<g class="st2">
					<path class="st3" d="M26.7,57.2c1.1,0,2.2-0.2,3.4-0.3c1.1-0.1,2.2-0.2,3.3-0.2s2.2,0,3.3,0c1.1,0,2.3,0.2,3.4,0.1
						c0.2,0,0.3-0.3,0.1-0.4C39,56.1,37.9,56,36.7,56c-1.1,0-2.3,0-3.4,0c-1.1,0.1-2.3,0.2-3.4,0.3c-1.1,0.1-2.2,0.3-3.3,0.7
						C26.6,57.1,26.6,57.2,26.7,57.2L26.7,57.2z"/>
				</g>
				<g class="st2">
					<path class="st3" d="M25.9,57.3c-0.3,0.1-0.5,0.1-0.8,0.2c-0.1,0-0.3,0.1-0.4,0.1c-0.1,0-0.3,0.1-0.4,0.2
						c-0.1,0.1-0.1,0.3,0.1,0.3c0.1,0,0.3,0,0.4-0.1c0.1,0,0.3-0.1,0.4-0.1c0.3-0.1,0.5-0.2,0.8-0.3C26.2,57.5,26.1,57.2,25.9,57.3
						L25.9,57.3z"/>
				</g>
			</g>
		</g>
		<g>
			<path class="st0" d="M42.6,64.1c-3.4-0.1-6.9-0.2-10.3,0.4c-1.7,0.3-3.4,0.7-5,1.3c-1.4,0.6-3.2,1.3-3.7,2.8
				c-0.2,0.5-0.1,1.2,0.3,1.5c1.3,0.9,3.4-0.4,4.6-0.8c2.4-0.7,4.8-1.2,7.3-1.4c0.5,0,6.6-0.2,6.6,0.2L42.6,64.1z"/>
			<g>
				<path class="st0" d="M32.3,64.5c-1.7,0.3-3.4,0.7-5,1.3c-0.7,0.3-1.4,0.6-2.1,1c1.2,0.1,2.7-0.7,3.6-1c2.4-0.7,4.8-1.1,7.3-1.3
					c0.5,0,5.5,0,6.4,0.2c0-0.4,0-0.6,0-0.6C39.2,64,35.7,63.9,32.3,64.5z"/>
				<path class="st0" d="M25.4,68.8c-1.1,0.2-1.3-0.4-1.3-1.2c-0.2,0.3-0.4,0.6-0.6,0.9c-0.2,0.5-0.1,1.2,0.3,1.5
					c1.3,0.9,3.4-0.4,4.6-0.8c2.4-0.7,4.8-1.2,7.3-1.4c0.5,0,6.6-0.2,6.6,0.2c0,0,0-0.7,0.1-1.6C35,65.3,27.7,68.4,25.4,68.8z"/>
			</g>
			<path class="st1" d="M25,70.5c-0.4,0-0.8-0.1-1.2-0.4c-0.5-0.4-0.6-1.1-0.4-1.7c0.6-1.6,2.5-2.3,3.8-2.9c1.6-0.7,3.4-1,5-1.3
				c3.3-0.6,6.8-0.5,10.2-0.4l0.2,0c0,0,0.1,0,0.1,0c0,0,0,0.1,0,0.1L42.5,68l0,0c0,0.1-0.1,0.1-0.2,0.1c0,0-0.1,0-0.1-0.1
				c-0.5-0.2-5.8-0.1-6.4-0.1c-2.4,0.2-4.9,0.7-7.2,1.4c-0.3,0.1-0.6,0.2-0.9,0.4C26.8,70.1,25.8,70.5,25,70.5z M38.5,64.2
				c-2.1,0-4.1,0.1-6.1,0.4c-1.6,0.3-3.3,0.6-5,1.3c-1.3,0.5-3.1,1.3-3.7,2.7c-0.2,0.4-0.1,1,0.3,1.3c0.9,0.7,2.4,0.1,3.5-0.4
				c0.3-0.1,0.7-0.3,1-0.4c2.4-0.8,4.8-1.2,7.3-1.4c0.1,0,5.2-0.2,6.4,0.1l0.2-3.5h0C41.1,64.2,39.8,64.2,38.5,64.2z"/>
			<g>
				<g class="st2">
					<path class="st3" d="M27.3,66.7c0.2-0.1,0.4-0.1,0.7-0.2c0.1,0,0.2-0.1,0.3-0.1c0.1,0,0.2-0.1,0.3-0.2c0.1-0.1,0-0.2-0.1-0.1
						c-0.1,0-0.2,0-0.3,0.1c-0.1,0-0.2,0.1-0.3,0.1C27.7,66.4,27.5,66.5,27.3,66.7C27.2,66.6,27.3,66.7,27.3,66.7L27.3,66.7z"/>
				</g>
				<g class="st2">
					<path class="st3" d="M29.5,65.9c0.6-0.1,1.1-0.1,1.7-0.2c0.6-0.1,1.3-0.2,1.9-0.2c1.2-0.1,2.5-0.1,3.6-0.5c0.1,0,0.1-0.2,0-0.2
						c-1.2-0.3-2.4,0-3.6,0.1c-0.6,0.1-1.2,0.2-1.8,0.3c-0.3,0.1-0.6,0.1-0.9,0.2c-0.3,0.1-0.6,0.2-0.9,0.3
						C29.4,65.8,29.4,65.9,29.5,65.9L29.5,65.9z"/>
				</g>
			</g>
		</g>
		<g>
			<path class="st0" d="M43.9,70c0,0-6,0.7-8.4,1.5s-8.4,2.5-9.8,5.4c-1.4,2.9,2.7,2.4,4.5,1.4c1.8-1,7-3.7,14.6-3.4L43.9,70z"/>
			<g>
				<path class="st0" d="M35.5,71.4c-1.7,0.5-5.3,1.6-7.7,3.2c0.8-0.1,1.7-0.4,2.3-0.7c1.8-0.9,6.8-3.4,14-3l-0.2-1
					C43.9,70,37.9,70.7,35.5,71.4z"/>
				<path class="st0" d="M27.2,78.2c-1.2,0.1-1.2-1-1-2.1c-0.2,0.3-0.4,0.5-0.5,0.8c-1.4,2.9,2.7,2.4,4.5,1.4c1.8-1,7-3.7,14.6-3.4
					L44.4,73c-1.1,0.1-2.9,0.3-5.7,0.8C31.5,75.1,29.5,78,27.2,78.2z"/>
			</g>
			<path class="st1" d="M27.1,79.2c-0.6,0-1.2-0.1-1.5-0.5c-0.4-0.4-0.5-1.1,0-2c1.4-2.9,6.9-4.6,9.6-5.4l0.3-0.1
				c2.4-0.7,8.4-1.5,8.4-1.5c0.1,0,0.2,0,0.2,0.1l0.9,4.9c0,0,0,0.1,0,0.1c0,0-0.1,0.1-0.1,0.1c-5.1-0.3-10,0.9-14.5,3.4
				C29.5,78.8,28.2,79.2,27.1,79.2z M43.8,70.1c-0.9,0.1-6.1,0.8-8.2,1.5l-0.3,0.1c-2.6,0.8-8,2.5-9.4,5.2c-0.4,0.7-0.4,1.3,0,1.6
				c0.8,0.7,3.1,0.3,4.3-0.4c4.5-2.5,9.4-3.6,14.5-3.4L43.8,70.1z"/>
			<g>
				<g class="st2">
					<path class="st3" d="M27,76.6c0.1-0.1,0.3-0.2,0.4-0.3c0.1-0.1,0.3-0.3,0.4-0.4c0.1-0.1,0.3-0.3,0.4-0.4
						c0.1-0.1,0.3-0.3,0.4-0.4c0.1-0.1,0-0.2-0.1-0.1c-0.2,0.1-0.4,0.1-0.5,0.2c-0.2,0.1-0.3,0.2-0.5,0.3c-0.2,0.1-0.3,0.3-0.4,0.4
						C27,76.2,27,76.4,27,76.6C26.9,76.6,26.9,76.6,27,76.6L27,76.6z"/>
				</g>
				<g class="st2">
					<path class="st3" d="M29.5,74.6c0.9-0.4,1.8-0.9,2.7-1.3c0.9-0.4,1.8-0.6,2.7-1c0.1-0.1,0-0.2-0.1-0.2c-1,0.2-2,0.5-2.9,0.9
						C31,73.4,30.1,73.8,29.5,74.6C29.4,74.6,29.4,74.7,29.5,74.6L29.5,74.6z"/>
				</g>
			</g>
		</g>
		<g>
			<path class="st0" d="M46.8,78.8c0,0-5,0.7-9.6,2.5s-7,4.4-7.5,5.8s1,1.9,2.9,1c1.9-0.9,8-4.6,16.2-5.7L46.8,78.8z"/>
			<g>
				<path class="st0" d="M37.1,81.3c-3.1,1.2-5.1,2.7-6.3,4c0.3-0.1,0.6-0.2,0.9-0.3c1.8-0.9,7.6-4.3,15.4-5.5l-0.3-0.6
					C46.8,78.8,41.8,79.5,37.1,81.3z"/>
				<path class="st0" d="M30.5,85.6c-0.5,0.5-0.8,1-0.9,1.4c-0.5,1.4,1,1.9,2.9,1c1.9-0.9,8-4.6,16.2-5.7l-0.5-1
					c-7.4,0.5-13.3,4.2-15.7,5.2C31.2,87.2,30.7,86.5,30.5,85.6z"/>
			</g>
			<path class="st1" d="M30.8,88.7c-0.4,0-0.8-0.1-1-0.3c-0.3-0.3-0.4-0.8-0.2-1.3c0.5-1.6,3.1-4.1,7.6-5.9c4.6-1.8,9.6-2.5,9.7-2.5
				c0.1,0,0.1,0,0.2,0.1l2,3.6c0,0,0,0.1,0,0.1c0,0-0.1,0.1-0.1,0.1c-7.3,1-13,4-15.4,5.2c-0.3,0.2-0.6,0.3-0.8,0.4
				C31.9,88.5,31.3,88.7,30.8,88.7z M46.7,79c-0.7,0.1-5.3,0.8-9.5,2.5c-5,2-7,4.6-7.4,5.7c-0.1,0.3-0.2,0.7,0.2,1
				c0.5,0.4,1.5,0.3,2.5-0.2c0.2-0.1,0.5-0.2,0.8-0.4c2.4-1.3,8.1-4.2,15.3-5.2L46.7,79z"/>
			<g>
				<g class="st2">
					<path class="st3" d="M31.8,85.2c0.2-0.2,0.4-0.3,0.6-0.5c0.1-0.1,0.2-0.1,0.3-0.2c0.1,0,0.1-0.1,0.2-0.1c0,0,0.1-0.1,0.1-0.1
						c0.1-0.1,0-0.2-0.1-0.1c-0.3,0.1-0.5,0.2-0.7,0.4C32,84.7,31.9,84.9,31.8,85.2C31.7,85.2,31.8,85.2,31.8,85.2L31.8,85.2z"/>
				</g>
				<g class="st2">
					<path class="st3" d="M33.8,83.8c0.7-0.4,1.4-0.7,2.1-1c0.7-0.3,1.5-0.6,2.2-0.9c0.1,0,0-0.1,0-0.1c-0.8,0.2-1.6,0.5-2.3,0.8
						c-0.7,0.3-1.4,0.7-2.1,1.1C33.6,83.7,33.7,83.9,33.8,83.8L33.8,83.8z"/>
				</g>
			</g>
		</g>
	</g>
	<g>
		<g>
			<path class="st0" d="M87.9,52.3c0,0,4.3-1.6,10.3-2c2.3-0.2,4.6-0.2,6.9,0c1.6,0.1,3.1,0.4,4.6,0.8c1.3,0.4,2.8,0.9,2.8,2.5
				c0,0.9-0.6,1.4-1.5,1.3c-1.9-0.2-7.9-1.1-13.1-0.3c-5.2,0.8-8.9,2-8.9,2L87.9,52.3z"/>
			<g>
				<path class="st0" d="M109.5,51.4c-1.9-0.2-7.9-1.1-13.1-0.3c-4,0.6-7.1,1.5-8.3,1.8l-0.2-0.7c0,0,4.3-1.6,10.3-2
					c2.3-0.2,4.6-0.2,6.9,0c1.6,0.1,3.1,0.4,4.6,0.8c0.2,0.1,0.5,0.1,0.7,0.2C110.1,51.4,109.8,51.5,109.5,51.4z"/>
				<path class="st0" d="M112.5,53.6c0,0.9-0.6,1.4-1.5,1.3c-1.9-0.2-7.9-1.1-13.1-0.3c-5.2,0.8-8.9,2-8.9,2l-0.3-1.3
					c11.9-4.4,19.6-2.3,21.8-2.1c1.1,0.1,1.2-0.7,1.1-1.4C112.1,52.2,112.5,52.7,112.5,53.6z"/>
			</g>
			<path class="st1" d="M89.1,56.8C89,56.8,89,56.8,89.1,56.8c-0.1,0-0.1-0.1-0.1-0.1l-1.2-4.3c0-0.1,0-0.2,0.1-0.2
				c0,0,4.3-1.6,10.3-2.1c2.1-0.2,4.4-0.2,6.9,0c1.6,0.1,3.1,0.4,4.7,0.8c1.1,0.3,2.9,0.9,2.9,2.7c0,0.5-0.2,0.9-0.5,1.1
				c-0.3,0.3-0.7,0.4-1.2,0.3c-0.2,0-0.4,0-0.7-0.1c-2.3-0.3-7.7-0.9-12.3-0.2C92.8,55.6,89.2,56.7,89.1,56.8
				C89.1,56.8,89.1,56.8,89.1,56.8z M88.1,52.4l1.1,4c0.7-0.2,4.2-1.2,8.7-2c4.7-0.7,10.1-0.1,12.4,0.2c0.3,0,0.5,0.1,0.7,0.1
				c0.4,0,0.7-0.1,1-0.3c0.2-0.2,0.4-0.5,0.4-0.9c0-1.4-1.3-2-2.7-2.4c-1.5-0.5-3-0.7-4.6-0.8c-2.5-0.1-4.8-0.1-6.9,0
				C92.8,50.8,88.8,52.1,88.1,52.4z"/>
			<g>
				<g class="st2">
					<path class="st3" d="M106,50.8c-1.1-0.3-2.2-0.3-3.3-0.3c-1.1,0-2.3,0.1-3.4,0.2c-1.1,0.1-2.2,0.3-3.3,0.4
						c-1.1,0.2-2.3,0.4-3.3,0.8c-0.2,0.1-0.2,0.4,0.1,0.4c1.1-0.1,2.2-0.4,3.3-0.6c1.1-0.2,2.2-0.4,3.4-0.5c1.1-0.1,2.2-0.2,3.4-0.2
						c1.1,0,2.2,0,3.3-0.2C106.1,51,106,50.8,106,50.8L106,50.8z"/>
				</g>
				<g class="st2">
					<path class="st3" d="M106.7,51.2c0.3,0.1,0.5,0.1,0.8,0.2c0.1,0,0.3,0,0.4,0.1c0.1,0,0.3,0,0.4,0c0.2,0,0.2-0.3,0-0.3
						c-0.1,0-0.3-0.1-0.4-0.1c-0.1,0-0.3-0.1-0.4-0.1c-0.3,0-0.6,0-0.8-0.1C106.6,50.9,106.5,51.2,106.7,51.2L106.7,51.2z"/>
				</g>
			</g>
		</g>
		<g>
			<path class="st0" d="M91.2,60.1c3.4-0.6,6.8-1.2,10.3-1.1c1.7,0.1,3.4,0.2,5.1,0.6c1.4,0.3,3.3,0.8,4.1,2.2
				c0.3,0.5,0.3,1.1-0.1,1.5c-1.1,1.1-3.4,0.1-4.7-0.1c-2.4-0.4-4.9-0.5-7.4-0.4c-0.5,0-6.6,0.8-6.5,1.1L91.2,60.1z"/>
			<g>
				<path class="st0" d="M101.5,59c1.7,0.1,3.4,0.2,5.1,0.6c0.7,0.2,1.5,0.4,2.2,0.7c-1.2,0.2-2.8-0.3-3.7-0.5
					c-2.5-0.3-4.9-0.4-7.4-0.2c-0.5,0-5.4,0.8-6.3,1.1c-0.1-0.4-0.1-0.6-0.1-0.6C94.6,59.5,98,58.9,101.5,59z"/>
				<path class="st0" d="M108.9,62.3c1.1,0,1.3-0.6,1.1-1.3c0.3,0.2,0.5,0.5,0.7,0.8c0.3,0.5,0.3,1.1-0.1,1.5
					c-1.1,1.1-3.4,0.1-4.7-0.1c-2.4-0.4-4.9-0.5-7.4-0.4c-0.5,0-6.6,0.8-6.5,1.1c0,0-0.2-0.7-0.3-1.5
					C98.9,60.2,106.6,62.2,108.9,62.3z"/>
			</g>
			<path class="st1" d="M92,64.1c-0.1,0-0.1,0-0.1-0.1l0,0l-0.8-3.8c0,0,0-0.1,0-0.1c0,0,0.1-0.1,0.1-0.1l0.2,0
				c3.3-0.6,6.7-1.2,10.1-1.1c1.7,0,3.4,0.2,5.2,0.6c1.4,0.3,3.4,0.8,4.2,2.3c0.3,0.5,0.3,1.2-0.1,1.7c-0.9,0.9-2.5,0.5-3.8,0.2
				c-0.4-0.1-0.7-0.2-1-0.2c-2.4-0.4-4.9-0.5-7.4-0.4c-0.6,0-5.9,0.7-6.4,1C92.2,64,92.1,64.1,92,64.1C92.1,64.1,92.1,64.1,92,64.1z
				 M91.4,60.2l0.7,3.5c1.2-0.4,6.3-1,6.4-1c2.5-0.2,5,0,7.4,0.4c0.3,0,0.6,0.1,1,0.2c1.2,0.3,2.7,0.7,3.5-0.1
				c0.3-0.3,0.3-0.9,0.1-1.3c-0.7-1.4-2.6-1.8-4-2.2c-1.7-0.4-3.4-0.5-5.1-0.6C98.1,59,94.7,59.6,91.4,60.2L91.4,60.2z"/>
			<g>
				<g class="st2">
					<path class="st3" d="M106.8,60.4c-0.2-0.1-0.4-0.2-0.7-0.2c-0.1,0-0.2-0.1-0.3-0.1c-0.1,0-0.2,0-0.4,0c-0.1,0-0.1,0.1,0,0.1
						c0.1,0.1,0.2,0.1,0.3,0.1c0.1,0,0.2,0,0.3,0.1C106.3,60.4,106.5,60.4,106.8,60.4C106.8,60.4,106.8,60.4,106.8,60.4L106.8,60.4z
						"/>
				</g>
				<g class="st2">
					<path class="st3" d="M104.5,59.9c-0.6-0.1-1.1-0.2-1.7-0.3c-0.6-0.1-1.3-0.1-1.9-0.1c-1.2,0-2.5-0.1-3.7,0.4
						c-0.1,0-0.1,0.2,0,0.2c1.2,0.2,2.4,0,3.6-0.1c0.6,0,1.2,0,1.8,0c0.3,0,0.6,0,0.9,0c0.3,0,0.6,0,0.9,0
						C104.6,60,104.6,59.9,104.5,59.9L104.5,59.9z"/>
				</g>
			</g>
		</g>
		<g>
			<path class="st0" d="M90.8,66.1c0,0,6.1-0.1,8.5,0.3c2.5,0.4,8.6,1.2,10.4,4s-2.3,2.8-4.2,2c-1.9-0.7-7.5-2.7-14.9-1.3L90.8,66.1
				z"/>
			<g>
				<path class="st0" d="M99.3,66.3c1.8,0.3,5.4,0.8,8,2.1c-0.8,0-1.7-0.1-2.4-0.3c-1.9-0.6-7.2-2.4-14.3-1l0-1
					C90.8,66.1,96.9,65.9,99.3,66.3z"/>
				<path class="st0" d="M108.4,71.8c1.2-0.1,1.1-1.2,0.7-2.3c0.2,0.2,0.5,0.5,0.6,0.7c1.8,2.7-2.3,2.8-4.2,2
					c-1.9-0.7-7.5-2.7-14.9-1.3l0.1-1.9c1.1-0.1,2.9-0.2,5.7-0.1C103.8,69.4,106.2,71.9,108.4,71.8z"/>
			</g>
			<path class="st1" d="M107.9,72.9c-0.8,0-1.7-0.2-2.4-0.4c-4.8-1.8-9.8-2.2-14.9-1.3c0,0-0.1,0-0.1,0c0,0-0.1-0.1-0.1-0.1l0.2-5
				c0-0.1,0.1-0.1,0.1-0.1c0.1,0,6.1-0.1,8.6,0.3l0.3,0c2.7,0.4,8.4,1.3,10.2,4c0.5,0.8,0.6,1.5,0.2,1.9
				C109.7,72.7,108.8,72.9,107.9,72.9z M95.9,70.4c3.3,0,6.5,0.6,9.7,1.8c1.3,0.5,3.7,0.6,4.3-0.2c0.3-0.4,0.2-0.9-0.3-1.6
				c-1.7-2.6-7.3-3.4-10-3.8l-0.3,0c-2.2-0.3-7.4-0.3-8.4-0.3l-0.2,4.7C92.5,70.6,94.2,70.4,95.9,70.4z"/>
			<g>
				<g class="st2">
					<path class="st3" d="M108.6,70.2c-0.1-0.2-0.2-0.4-0.3-0.5c-0.1-0.1-0.3-0.3-0.5-0.4c-0.2-0.1-0.3-0.2-0.5-0.3
						c-0.2-0.1-0.4-0.1-0.6-0.2c-0.1,0-0.1,0.1-0.1,0.2c0.2,0.1,0.3,0.2,0.5,0.3c0.2,0.1,0.3,0.2,0.4,0.3c0.1,0.1,0.3,0.2,0.4,0.3
						C108.1,70.1,108.3,70.1,108.6,70.2C108.5,70.3,108.6,70.2,108.6,70.2L108.6,70.2z"/>
				</g>
				<g class="st2">
					<path class="st3" d="M105.8,68.6c-0.8-0.6-1.7-0.9-2.7-1.1c-1-0.2-2-0.4-3-0.5c-0.1,0-0.2,0.2,0,0.2c1,0.3,1.9,0.4,2.9,0.6
						C103.9,68,104.8,68.4,105.8,68.6C105.8,68.7,105.8,68.6,105.8,68.6L105.8,68.6z"/>
				</g>
			</g>
		</g>
		<g>
			<path class="st0" d="M89.2,75.2c0,0,5,0,9.9,1.1c4.8,1.1,7.6,3.3,8.2,4.6s-0.7,2-2.7,1.4s-8.6-3.4-16.9-3.3L89.2,75.2z"/>
			<g>
				<path class="st0" d="M99.1,76.3c3.2,0.8,5.5,2,6.8,3.1c-0.3,0-0.6-0.1-0.9-0.2c-1.9-0.6-8.1-3.2-16-3.3l0.2-0.7
					C89.2,75.2,94.3,75.2,99.1,76.3z"/>
				<path class="st0" d="M106.3,79.7c0.5,0.5,0.9,0.9,1.1,1.3c0.7,1.3-0.7,2-2.7,1.4c-2-0.7-8.6-3.4-16.9-3.3l0.4-1
					c7.4-0.6,13.7,2.2,16.3,2.9C105.8,81.3,106.2,80.6,106.3,79.7z"/>
			</g>
			<path class="st1" d="M106,82.8c-0.4,0-0.9-0.1-1.4-0.3c-0.2-0.1-0.5-0.2-0.8-0.3c-2.6-0.9-8.6-3.1-16-3c-0.1,0-0.1,0-0.1-0.1
				s0-0.1,0-0.1l1.4-3.8c0-0.1,0.1-0.1,0.1-0.1c0.1,0,5.1,0,9.9,1.1c4.6,1.1,7.6,3.2,8.3,4.7c0.3,0.5,0.2,1-0.1,1.4
				C107.1,82.6,106.6,82.8,106,82.8z M88.2,78.9c7.2,0,13.1,2.1,15.7,3c0.3,0.1,0.6,0.2,0.8,0.3c1.1,0.4,2.1,0.3,2.5-0.1
				c0.3-0.3,0.2-0.7,0-1c-0.5-1-2.9-3.3-8.1-4.6c-4.4-1-9-1.1-9.7-1.1L88,78.9C88.1,78.9,88.1,78.9,88.2,78.9z"/>
			<g>
				<g class="st2">
					<path class="st3" d="M105,79.3c-0.2-0.2-0.4-0.4-0.6-0.5c-0.1-0.1-0.2-0.1-0.3-0.2c-0.1-0.1-0.3-0.1-0.4-0.1
						c-0.1,0-0.1,0.1,0,0.2c0.2,0.1,0.4,0.2,0.6,0.3C104.5,79.1,104.8,79.3,105,79.3C105,79.5,105.1,79.4,105,79.3L105,79.3z"/>
				</g>
				<g class="st2">
					<path class="st3" d="M102.8,78.2c-0.8-0.3-1.5-0.6-2.3-0.8c-0.8-0.2-1.6-0.3-2.3-0.4c-0.1,0-0.1,0.1,0,0.1
						c0.8,0.2,1.6,0.4,2.3,0.6c0.8,0.2,1.5,0.4,2.3,0.7C102.9,78.4,102.9,78.2,102.8,78.2L102.8,78.2z"/>
				</g>
			</g>
		</g>
	</g>
	<g>
		<g>
			
				<rect x="39.1" y="42" transform="matrix(0.6224 -0.7827 0.7827 0.6224 -24.6728 51.2002)" class="st0" width="3.3" height="18.4"/>
		</g>
		<g>
			
				<rect x="41.3" y="41.1" transform="matrix(0.6224 -0.7827 0.7827 0.6224 -23.5485 51.5379)" class="st4" width="0.6" height="18.2"/>
			<rect x="39.4" y="43" transform="matrix(0.6224 -0.7827 0.7827 0.6224 -25.6316 50.8306)" class="st0" width="1" height="18"/>
		</g>
		<g>
			<path class="st1" d="M46.9,58.3C46.9,58.3,46.8,58.3,46.9,58.3L32.4,46.9c-0.1-0.1-0.1-0.1,0-0.2l2.1-2.6c0,0,0.1-0.1,0.1-0.1
				c0,0,0.1,0,0.1,0L49,55.5c0.1,0.1,0.1,0.1,0,0.2L47,58.3C47,58.3,47,58.3,46.9,58.3C46.9,58.3,46.9,58.3,46.9,58.3z M32.7,46.7
				L46.9,58l1.9-2.4L34.6,44.4L32.7,46.7z"/>
		</g>
	</g>
	<g>
		<g>
			<polygon class="st0" points="52,56.2 50.8,43 54.1,42.7 55.3,55.9 			"/>
		</g>
		<g>
			<polygon class="st4" points="54.2,42.9 53.6,43 54.7,56 55.3,55.9 			"/>
			<polygon class="st0" points="51.8,42.9 50.8,43 52,55.9 52.9,55.8 			"/>
		</g>
		<g>
			<path class="st1" d="M52,56.4C52,56.4,51.9,56.4,52,56.4c-0.1-0.1-0.1-0.1-0.1-0.1L50.7,43c0-0.1,0.1-0.2,0.1-0.2l3.3-0.3
				c0,0,0.1,0,0.1,0c0,0,0,0.1,0.1,0.1l1.2,13.2c0,0.1-0.1,0.2-0.1,0.2L52,56.4C52,56.4,52,56.4,52,56.4z M51,43.2l1.1,12.9l3-0.3
				L54,42.9L51,43.2z"/>
		</g>
	</g>
	<g>
		<g>
			<polygon class="st0" points="78.8,55 79.2,41.7 75.9,41.6 75.5,54.9 			"/>
		</g>
		<g>
			<polygon class="st4" points="75.8,41.8 76.4,41.8 76.1,54.9 75.5,54.9 			"/>
			<polygon class="st0" points="78.2,41.7 79.2,41.7 78.8,54.6 77.8,54.6 			"/>
		</g>
		<g>
			<path class="st1" d="M78.8,55.1C78.8,55.1,78.8,55.1,78.8,55.1L75.5,55c-0.1,0-0.1-0.1-0.1-0.2l0.4-13.3c0,0,0-0.1,0-0.1
				s0.1,0,0.1,0l3.3,0.1c0.1,0,0.1,0.1,0.1,0.2L78.9,55c0,0,0,0.1,0,0.1C78.9,55.1,78.8,55.1,78.8,55.1z M75.6,54.7l3,0.1l0.4-13
				l-3-0.1L75.6,54.7z"/>
		</g>
	</g>
	<g>
		<g>
			<rect x="79" y="44.3" transform="matrix(0.5591 -0.8291 0.8291 0.5591 0.7617 93.3895)" class="st0" width="18.4" height="3.3"/>
		</g>
		<g>
			<rect x="77.9" y="45" transform="matrix(0.5591 -0.8291 0.8291 0.5591 0.809 92.1193)" class="st4" width="18.2" height="0.6"/>
			<rect x="80.2" y="46" transform="matrix(0.5591 -0.8291 0.8291 0.5591 0.809 94.4982)" class="st0" width="18" height="1"/>
		</g>
		<g>
			<path class="st1" d="M84.4,54.7C84.4,54.7,84.4,54.7,84.4,54.7l-2.8-1.9c0,0-0.1-0.1-0.1-0.1c0,0,0-0.1,0-0.1l10.3-15.2
				c0-0.1,0.1-0.1,0.2,0l2.7,1.8c0,0,0.1,0.1,0.1,0.1c0,0,0,0.1,0,0.1L84.5,54.6C84.5,54.7,84.5,54.7,84.4,54.7z M81.9,52.6l2.5,1.7
				l10.1-15L92,37.6L81.9,52.6z"/>
		</g>
	</g>
	<g>
		<path class="st0" d="M66.3,46.6c-3.2,0.1-6.3,0.4-9.4,0.9c-3.5,0.6-7.5,1.5-10.4,3.8C40.9,56,41,62.2,41.3,67.7
			c0.2,4.4,1.5,9.1,3.9,12.8c3.7,5.8,9.7,7.4,16.2,7.1c3.8-0.1,7.5-0.5,11.3-1c2.5-0.3,5-0.6,7.4-1.3c2.2-0.6,4.5-1,6.6-2.1
			c5.6-2.9,6.3-9.7,5.9-15.4c-0.3-4.3-1.1-8.7-2.6-12.8c-1.2-3.1-2.9-5.7-6.2-6.8c-2.6-0.9-5.5-1-8.2-1.3
			C72.5,46.7,69.4,46.5,66.3,46.6z"/>
		<g>
			<path class="st0" d="M47,53c3.1-2.3,7.4-3.2,11.2-3.8c3.4-0.5,6.8-0.8,10.2-0.9c3.3-0.1,6.7,0.1,10,0.4c2.7,0.3,5.6,0.4,8.2,1.1
				c-0.8-0.6-1.6-1.1-2.7-1.5c-2.6-0.9-5.5-1-8.2-1.3c-3.1-0.3-6.2-0.4-9.3-0.4c-3.2,0.1-6.3,0.4-9.4,0.9c-3.5,0.6-7.5,1.5-10.4,3.8
				c-4.8,4-5.4,9-5.3,13.9C41.3,60.9,42.4,56.5,47,53z"/>
		</g>
		<path class="st1" d="M60.2,87.8c-7.1,0-12.1-2.4-15.2-7.2c-2.3-3.6-3.7-8.1-3.9-12.9c-0.2-4.9-0.6-11.6,5.3-16.4
			c2.8-2.3,6.7-3.2,10.4-3.9c3-0.5,6.2-0.8,9.4-0.9l0,0.2l0-0.2c3-0.1,6.1,0.1,9.3,0.4c0.5,0,1,0.1,1.4,0.1c2.3,0.2,4.6,0.4,6.8,1.2
			c3.7,1.2,5.4,4.5,6.3,6.9c1.4,3.6,2.2,7.7,2.6,12.8c0.6,8-1.4,13.2-6,15.6c-1.5,0.8-3.2,1.2-4.8,1.6c-0.6,0.2-1.2,0.3-1.8,0.5
			c-2.2,0.6-4.6,0.9-6.9,1.2l-0.6,0.1c-4.3,0.5-7.9,0.8-11.3,1C61,87.8,60.6,87.8,60.2,87.8z M68,46.8c-0.6,0-1.1,0-1.7,0
			c-3.2,0.1-6.4,0.4-9.4,0.9c-3.7,0.6-7.6,1.6-10.3,3.8c-5.7,4.7-5.4,11.1-5.2,16.2c0.2,4.7,1.6,9.2,3.8,12.7
			c3.2,5,8.5,7.3,16.1,7.1c3.4-0.1,7-0.4,11.3-1l0.6-0.1c2.3-0.3,4.6-0.6,6.8-1.2c0.6-0.2,1.2-0.3,1.8-0.5c1.6-0.4,3.3-0.8,4.8-1.6
			c4.5-2.3,6.4-7.4,5.8-15.3c-0.4-5.1-1.2-9.1-2.6-12.7c-1.4-3.7-3.3-5.8-6.1-6.7c-2.1-0.7-4.5-0.9-6.7-1.1c-0.5,0-1-0.1-1.5-0.1
			C73,46.9,70.5,46.8,68,46.8z"/>
		<path class="st4" d="M58.6,53c-1.8,0-3.5,0.2-5.3,0.5c-2,0.3-4.2,0.8-5.8,2.2c-3.2,2.6-3.1,6.1-2.9,9.1c0.1,2.5,0.8,5.1,2.2,7.2
			c2.1,3.2,5.4,4.1,9.1,4c2.1-0.1,4.2-0.3,6.3-0.5c1.4-0.2,2.8-0.3,4.2-0.7c1.2-0.4,2.5-0.6,3.7-1.2c3.2-1.6,3.5-5.5,3.3-8.6
			c-0.2-2.4-0.6-4.9-1.5-7.2c-0.7-1.7-1.6-3.2-3.5-3.8c-1.5-0.5-3.1-0.6-4.6-0.7C62.1,53.1,60.3,53,58.6,53z"/>
		<g class="st5">
			<path class="st0" d="M92.6,67.9c-0.3-4.3-1.1-8.7-2.6-12.8c-0.8-2-1.8-3.8-3.3-5.2c0,0.1,0.1,0.2,0.1,0.2
				c1.6,4.2,2.4,8.8,2.7,13.3c0.5,5.9-0.2,13-6.1,16.1c-2.2,1.1-4.6,1.5-6.9,2.2c-2.5,0.7-5.2,1-7.7,1.3c-3.9,0.5-7.8,0.9-11.8,1
				c-3.8,0.1-7.4-0.3-10.6-1.8c3.7,4.3,9.1,5.6,14.9,5.4c3.8-0.1,7.5-0.5,11.3-1c2.5-0.3,5-0.6,7.4-1.3c2.2-0.6,4.5-1,6.6-2.1
				C92.4,80.4,93.1,73.6,92.6,67.9z"/>
		</g>
		<g>
			<path class="st6" d="M76.2,62.1c-1.3,2.4-2.5,5.2-4.7,6.8c-1.1,0.8-2.4,1.3-3.8,1c-1.2-0.3-2.3-1-3.3-1.9c-3-2.7-5-6.4-8.2-8.7
				c0.2,0,0.4,0.1,0.6,0.1c5,0.9,10.3,0.9,15.2,0c2.5-0.5,5-1.3,7.3-2.3C78.1,58.7,77.1,60.4,76.2,62.1z"/>
			<path class="st1" d="M70.3,70.2c-0.9,0.3-1.8,0.4-2.7,0.2c-1.1-0.3-2.3-0.9-3.5-2c-1.3-1.2-2.5-2.6-3.6-3.9
				c-1.5-1.8-2.8-3.5-4.6-4.7c-0.2-0.1-0.3-0.4-0.2-0.6c0.1-0.1,0.2-0.2,0.3-0.3c0.1,0,0.2,0,0.3,0l0.1,0c0.2,0,0.3,0.1,0.5,0.1
				c5,0.9,10.2,0.9,15,0c1.7-0.3,3.4-0.8,5-1.4c0.7-0.3,1.4-0.6,2.2-0.9c0,0,0,0,0,0c0.2-0.1,0.5,0,0.6,0.2c0.1,0.2,0.1,0.5,0,0.6
				c-1.2,1.4-2.1,3-3.1,4.9c-0.2,0.3-0.4,0.7-0.6,1.1c-1.1,2.2-2.3,4.4-4.3,5.9C71.3,69.7,70.8,70,70.3,70.2z"/>
			<path class="st6" d="M76.2,62.1c-1.3,2.4-2.5,5.2-4.7,6.8c-1.1,0.8-2.4,1.3-3.8,1c-1.2-0.3-2.3-1-3.3-1.9c-3-2.7-5-6.4-8.2-8.7
				c0.2,0,0.4,0.1,0.6,0.1c5,0.9,10.3,0.9,15.2,0c2.5-0.5,5-1.3,7.3-2.3C78.1,58.7,77.1,60.4,76.2,62.1z"/>
			<path class="st7" d="M68.8,65.9c1.1,0.7,2.4,1.5,3.5,2.4c-0.2,0.2-0.5,0.5-0.8,0.7c-1.1,0.8-2.4,1.3-3.8,1
				c-1.2-0.3-2.3-1-3.3-1.9c-1.8-1.6-3.2-3.6-4.8-5.4C62.9,63.1,66,64.3,68.8,65.9z"/>
			<path class="st3" d="M73.7,61.4c-1.3,1.8-3.3,3.1-5.4,3.9c-1.8,0.7-3.7,1-5.7,1c-2.1-2.4-3.9-5.1-6.4-6.9c0.2,0,0.4,0.1,0.6,0.1
				c5,0.9,10.3,0.9,15.2,0c1-0.2,2-0.5,3-0.7C74.7,59.7,74.3,60.6,73.7,61.4z"/>
			<path class="st1" d="M54.2,60.6c0.3-0.2,0.6-0.5,0.9-0.7c0.3-0.2,0.5-0.5,0.6-0.8c0-0.1,0.1-0.1,0.1-0.2c0-0.1,0.1-0.1,0.1-0.2
				c0-0.1,0.1-0.2,0.1-0.2c0-0.1,0-0.2,0.1-0.3l0-0.1l0-0.1c0-0.1,0-0.2,0-0.3c0-0.2,0-0.4,0.1-0.6c0.1,0.2,0.2,0.4,0.3,0.6
				c0,0.1,0.1,0.2,0.1,0.3c0,0.1,0,0.2,0,0.3c0,0.1,0,0.2,0,0.3c0,0.1,0,0.2-0.1,0.3c0,0.1-0.1,0.2-0.1,0.3c0,0.1-0.1,0.2-0.2,0.3
				c-0.2,0.4-0.6,0.7-1,0.9C55,60.6,54.6,60.7,54.2,60.6z"/>
		</g>
		<g>
			
				<linearGradient id="SVGID_1_" gradientUnits="userSpaceOnUse" x1="83.6429" y1="41.8317" x2="79.5064" y2="34.6293" gradientTransform="matrix(1 0 0 -1 0 92)">
				<stop  offset="0.1177" style="stop-color:#FF005D"/>
				<stop  offset="0.3073" style="stop-color:#FF498C"/>
				<stop  offset="0.4936" style="stop-color:#FF8AB5"/>
				<stop  offset="0.6611" style="stop-color:#FFBCD5"/>
				<stop  offset="0.8067" style="stop-color:#FFE1EC"/>
				<stop  offset="0.9245" style="stop-color:#FFF7FA"/>
				<stop  offset="1" style="stop-color:#FFFFFF"/>
			</linearGradient>
			<path class="st8" d="M74.2,53.3c-1.5,3.4,0.5,5.1,3.5,5.8c5.2,1.1,9.3-0.2,10.2-2.8c0.8-2.6-0.1-5.5-4.3-6.8
				C79.4,48.2,75.8,49.5,74.2,53.3z"/>
			<g>
				<path class="st3" d="M85.5,52.6c-0.1,0.3-0.8,0.3-1.4-0.1c-0.7-0.4-1.1-1-0.9-1.3c0.1-0.3,0.7-0.3,1.4,0.1
					C85.2,51.7,85.6,52.2,85.5,52.6z"/>
			</g>
			<g>
				<path class="st3" d="M86.4,54.1c-0.1,0.1-0.4,0.1-0.6-0.1c-0.2-0.2-0.2-0.4-0.1-0.6c0.1-0.1,0.4,0,0.6,0.2
					C86.5,53.7,86.6,54,86.4,54.1z"/>
			</g>
		</g>
		<g>
			
				<linearGradient id="SVGID_2_" gradientUnits="userSpaceOnUse" x1="-1787.1355" y1="39.4369" x2="-1791.272" y2="32.2345" gradientTransform="matrix(-1 0 0 -1 -1739.3553 92)">
				<stop  offset="0.1177" style="stop-color:#FF005D"/>
				<stop  offset="0.3073" style="stop-color:#FF498C"/>
				<stop  offset="0.4936" style="stop-color:#FF8AB5"/>
				<stop  offset="0.6611" style="stop-color:#FFBCD5"/>
				<stop  offset="0.8067" style="stop-color:#FFE1EC"/>
				<stop  offset="0.9245" style="stop-color:#FFF7FA"/>
				<stop  offset="1" style="stop-color:#FFFFFF"/>
			</linearGradient>
			<path class="st9" d="M57.3,55.7c1.5,3.4-0.5,5.1-3.5,5.8c-5.2,1.1-9.3-0.2-10.2-2.8c-0.8-2.6,0.1-5.5,4.3-6.8
				C52,50.6,55.6,51.9,57.3,55.7z"/>
			<g>
				<path class="st3" d="M46,55c0.1,0.3,0.8,0.3,1.4-0.1c0.7-0.4,1.1-1,0.9-1.3c-0.1-0.3-0.7-0.3-1.4,0.1C46.3,54.1,45.8,54.6,46,55
					z"/>
			</g>
			<g>
				<path class="st3" d="M45,56.5c0.1,0.1,0.4,0.1,0.6-0.1c0.2-0.2,0.2-0.4,0.1-0.6c-0.1-0.1-0.4,0-0.6,0.2
					C44.9,56.1,44.8,56.4,45,56.5z"/>
			</g>
		</g>
	</g>
	<g>
		<g>
			<path class="st0" d="M25.6,28.7c-0.4-0.3,0.2-1.9,0.3-2.3c0.3-1.1,0.6-2.2,0.9-3.2c0.7-2.7,1.3-5.4,2-8.1
				c0.5-1.7,2.1-2.4,3.6-1.5c0.7,0.4,1.3,1.1,1.7,1.7c3.3,4.6,5.1,11.2,5.7,16.8c0.5,5.4-0.5,11.9-2.9,16.8
				c-1.4,2.9-4.7,2.4-7.5,2.5c-2.4,0.1-4.8-0.2-7.1-0.7C12.7,48.3,4.9,38.9,3.4,29.2c-0.3-2.1-0.2-4.5,1.4-5.9
				C7.3,21,11.5,22,14.4,23C18.3,24.3,22.1,26.4,25.6,28.7z"/>
			<g class="st10">
				<path class="st0" d="M39.8,32.1c-0.2-2.4-0.7-5-1.4-7.5c0.5,8.1,0.6,19-1.6,24.5c0-0.1,0.1-0.1,0.1-0.2
					C39.3,43.9,40.3,37.5,39.8,32.1z"/>
				<path class="st0" d="M22,32.1c0.1,0.3,0.2,0.6,0.4,0.7c0.6,0.5,1.1,0,1.7-0.2c0.7-0.2,1.5,0,2.1,0.4c0.5,0.4,0.9,0.8,1.2,1.3
					c0.1,0.2,0.4,0.1,0.4-0.1c0.3-0.8,0.1-1.7,0.1-2.5c0-1,0.1-2,0.2-2.9c0.4-3.9,1.2-7.7,1.8-11.6c0.2-1.3,0.5-2.7,1.8-3.2
					c0.2-0.1,0.4-0.2,0.5-0.4c0,0,0,0,0-0.1c-1.3-0.7-2.6-0.3-3.2,0.8c-0.1,0.2-0.3,0.5-0.3,0.8c-0.7,2.7-1.3,5.4-2,8.1
					c-0.3,1.1-0.6,2.2-0.9,3.2c-0.1,0.4-0.7,2-0.3,2.3c-1.8-1.2-3.7-2.3-5.7-3.3c-1.5-0.8-3-1.4-4.5-2c1,0.4,1.9,0.9,2.7,1.6
					C20.3,26.7,21.5,29.4,22,32.1z"/>
				<path class="st0" d="M18.9,41.3c-1-0.7-1.9-1.5-2.7-2.4s-1.2-2.1-1.1-3.3c0.1-0.8,0.4-1.5,0.6-2.3s0-1.7-0.7-2.2
					c-1-0.6-2.2,0.2-3.4,0.4c-2.6,0.5-4.5-1.6-5.7-3.7c-0.2-0.4-0.4-0.8-0.6-1.2c-0.4-1-0.7-2-0.5-3.1c0-0.1,0.1-0.3,0.1-0.4
					c0,0-0.1,0.1-0.1,0.1c-0.4,0.4-0.8,0.9-1,1.4c-0.6,1.3-0.6,3-0.4,4.5c1.5,9.7,9.3,19.1,18.9,21.4c2.3,0.6,4.7,0.8,7.1,0.7
					c0.9,0,1.9,0,2.8,0c1.1,0,2.1-0.2,3-0.7c-4.3-0.4-8.1-3.2-11.6-5.8C22,43.7,20.4,42.5,18.9,41.3z"/>
			</g>
			<g class="st11">
				<path class="st0" d="M36.8,49.1c0-0.1,0.1-0.1,0.1-0.2c2.4-4.9,3.4-11.4,2.9-16.8c-0.2-2.4-0.7-5-1.4-7.5
					C38.8,32.7,39,43.5,36.8,49.1z"/>
				<path class="st0" d="M31.6,50.9c-4-1.6-8.6-1.2-12.3-3.3c-1.3-0.7-2.5-1.7-3.6-2.8c-1.8-1.6-3.8-3.6-3.6-6.1
					c0-0.4,0.1-0.8,0-1.2c-0.2-0.6-0.7-1-1.3-1.2S9.6,36.1,9,35.9c-2.5-0.8-3.8-3.4-4.5-5.9c-0.2-0.6-0.4-1.2-0.5-1.9
					c-0.2-1.1-0.3-2.2-0.2-3.3c0,0,0-0.1,0-0.2c-0.6,1.3-0.6,3-0.4,4.5c1.5,9.7,9.3,19.1,18.9,21.4c2.3,0.6,4.7,0.8,7.1,0.7
					c0.9,0,1.9,0,2.8,0C32.1,51.1,31.8,50.9,31.6,50.9z"/>
				<path class="st0" d="M26.7,23.2c-0.3,1.1-0.6,2.2-0.9,3.2c-0.1,0.4-0.7,2-0.3,2.3c-1.8-1.2-3.7-2.3-5.7-3.3
					c0.1,0.1,0.1,0.1,0.2,0.2c0.1,0.1,0.2,0.2,0.3,0.3c0.7,0.8,1.4,1.7,1.7,2.8c0.1,0.5,0.2,1,0.4,1.4c0.2,0.4,0.8,0.8,1.2,0.6
					c0.8-0.3,1.7-0.2,2.4,0.4c0.2,0.2,0.6,0,0.8-0.3c0.1-0.3,0.1-0.6,0-0.9c-0.6-5.1,2.2-10.1,2.2-15.2c0-0.1,0-0.2,0-0.3
					c-0.1,0.2-0.3,0.5-0.3,0.8C28.1,17.8,27.4,20.5,26.7,23.2z"/>
			</g>
			<path class="st4" d="M31.6,18c0.1-0.3,0.4-0.7,0.7-0.7c0.2,0,0.3,0,0.5,0.1c0.6,0.2,1.1,0.8,1.5,1.3c1.1,1.4,2.1,3,2.6,4.7
				c0.1,0.4,0.2,0.9,0,1.3c-0.1,0.1-0.2,0.3-0.3,0.3c-0.2,0-0.3-0.1-0.5-0.2c-1.3-0.9-1.8-2.6-2.7-3.9c-0.2-0.3-0.4-0.5-0.6-0.7
				c-0.3-0.2-0.6-0.2-0.9-0.1c-0.4,0.1-0.6,0.6-0.7,1c-0.1,0.4-0.1,0.9-0.3,1.3c-0.2,0.4-0.4-0.2-0.4-0.4c0-0.2,0-0.4,0.1-0.6
				c0-0.2,0.1-0.4,0.1-0.7c0.1-0.4,0.2-0.9,0.3-1.3C31.2,18.9,31.4,18.5,31.6,18z"/>
			<path class="st1" d="M28.6,51.5c-2.2,0-4.3-0.2-6.3-0.7c-4.6-1.1-9.1-4-12.6-8C6.3,38.8,4,34,3.3,29.2c-0.3-1.9-0.3-4.5,1.4-6
				c1.9-1.8,5.1-1.9,9.7-0.3c3.5,1.2,7,2.9,10.8,5.5c0-0.5,0.2-1.1,0.4-1.7c0-0.1,0.1-0.2,0.1-0.2c0.1-0.4,0.2-0.9,0.4-1.3
				c0.2-0.6,0.4-1.3,0.5-1.9c0.4-1.4,0.7-2.8,1-4.2c0.3-1.3,0.6-2.6,1-4c0.2-0.9,0.8-1.5,1.5-1.8c0.7-0.3,1.5-0.2,2.3,0.2
				c0.8,0.4,1.3,1.1,1.8,1.8c2.9,4.2,5.1,10.5,5.7,16.9c0.5,5.7-0.6,12.1-2.9,16.9c-1.3,2.6-4,2.6-6.3,2.6c-0.4,0-0.9,0-1.3,0
				C29.1,51.5,28.9,51.5,28.6,51.5z M8.9,22.1c-1.7,0-3,0.4-4,1.3c-1.6,1.5-1.6,4-1.3,5.8c0.7,4.7,3,9.5,6.4,13.4
				c3.5,4,7.9,6.8,12.4,7.9c2.2,0.5,4.6,0.8,7,0.7c0.4,0,0.9,0,1.3,0c2.4,0,4.9,0,6.1-2.4c2.3-4.7,3.4-11.1,2.9-16.7
				C39,25.7,36.9,19.5,34,15.3c-0.4-0.6-1-1.3-1.7-1.7c-0.7-0.4-1.4-0.5-2-0.2c-0.7,0.3-1.1,0.9-1.4,1.6c-0.3,1.3-0.7,2.7-1,3.9
				c-0.3,1.4-0.7,2.8-1,4.2c-0.2,0.6-0.4,1.3-0.5,1.9c-0.1,0.4-0.3,0.9-0.4,1.3c0,0.1,0,0.1-0.1,0.2c-0.4,1.1-0.4,1.8-0.3,1.9
				c0,0,0,0,0,0l0,0c0.1,0,0.1,0.1,0,0.2s-0.1,0.1-0.2,0l0,0c0,0,0,0,0,0c-4-2.6-7.6-4.5-11.2-5.7C12.2,22.4,10.4,22.1,8.9,22.1z"/>
			<path class="st4" d="M10.4,24.1c-0.5,0-1,0-1.5,0.1s-1,0.5-1.1,1c-0.2,0.5,0,1,0.2,1.5c0.8,1.6,2.6,2.6,4.4,2.4
				c0.8-0.1,1.5-0.4,2.2-0.4c1.2,0,2.3,0.6,3.5,0.5c0.2,0,0.3-0.1,0.4-0.2c0.1-0.1,0.1-0.2,0.1-0.3c0.1-0.5,0-1-0.3-1.5
				C17.8,26.3,17,25.4,16,25c-0.4-0.2-1-0.2-1.4-0.3c-0.7-0.1-1.3-0.3-2-0.4C11.9,24.2,11.2,24.2,10.4,24.1z"/>
			<path class="st4" d="M22.9,35c0.6,0,1.1-0.5,1.7-0.6c0.8-0.2,1.6,0.2,2.2,0.7s1.2,1.1,1.9,1.5c0.2,0.2,0.6,0.3,0.8,0.1
				c0.2-0.1,0.3-0.3,0.3-0.6c0.2-1,0.4-2.1,0.5-3.2c0.1-1.7,0.6-3.7,1.9-4.8c1-0.8,1.7-0.6,2.7,0.1c1.1,0.9,1.7,2.4,1.8,3.9
				c0.3,4,0.1,7.9-0.2,11.9c-0.1,1.5-0.5,3.4-1.9,4c-1.1,0.5-2.4-0.1-3.5-0.7c-4.2-2.2-8.2-4.8-12-7.6c-0.6-0.4-1.1-0.8-1.5-1.4
				c-0.3-0.5-0.4-1-0.5-1.6c-0.2-1.3-0.1-2.7,1-3.5c1-0.8,2.1,0.1,2.9,0.8C21.6,34.5,22.2,35,22.9,35z"/>
		</g>
		<g class="st11">
			<g>
				<path class="st3" d="M32.3,16.4c0.9,1,1.7,2,2.4,3.1c0.7,1.1,1.1,2.4,1.6,3.6c0.1,0.3,0.5,0.1,0.5-0.1c0-1.4-0.6-2.8-1.3-4
					c-0.4-0.6-0.8-1.2-1.3-1.7c-0.5-0.5-1-1-1.6-1.3C32.3,15.8,32.1,16.2,32.3,16.4L32.3,16.4z"/>
			</g>
			<g>
				<path class="st3" d="M31.3,19.8c-0.2,0.3-0.3,0.6-0.3,0.9c-0.1,0.3,0,0.6,0.1,1c0,0.1,0.1,0.1,0.2,0.1c0.1,0,0.2-0.1,0.2-0.2
					c0-0.1,0-0.2,0-0.4c0-0.1,0-0.2,0-0.2c0,0.1,0,0,0,0c0-0.1,0-0.1,0-0.2c0,0,0-0.1,0-0.1c0,0,0,0,0,0c0,0,0,0,0,0
					c0-0.1,0-0.1,0-0.2c0-0.1,0.1-0.3,0.1-0.4c0-0.1,0-0.3-0.1-0.3C31.5,19.6,31.4,19.7,31.3,19.8L31.3,19.8z"/>
			</g>
			<g>
				<path class="st3" d="M7.9,24.3c0.2,0,0.4,0,0.6,0c0.2,0,0.4,0,0.6,0c0.1,0,0.1,0,0.2,0c0.1,0,0.2,0,0.3,0c0.2,0,0.4,0,0.6,0
					c0.2,0,0.3-0.3,0.1-0.4c-0.2-0.1-0.3-0.2-0.6-0.3c-0.2-0.1-0.4-0.1-0.7-0.1c-0.2,0-0.4,0-0.6,0c-0.2,0-0.4,0-0.7,0.1
					C7.5,23.9,7.6,24.3,7.9,24.3L7.9,24.3z"/>
			</g>
			<g>
				<path class="st3" d="M12,24.9c0.4,0.4,0.8,0.6,1.3,0.8c0.5,0.2,1,0.4,1.5,0.6c0.5,0.2,1,0.4,1.5,0.6c0.5,0.2,1,0.4,1.5,0.6
					c0.2,0,0.4-0.2,0.2-0.3c-0.8-0.7-1.8-1.2-2.8-1.7c-0.5-0.2-1-0.4-1.5-0.6c-0.5-0.2-1-0.4-1.6-0.3C12,24.5,11.9,24.8,12,24.9
					L12,24.9z"/>
			</g>
			<g>
				<path class="st3" d="M36.7,30.9c0.1,2.3,0.1,4.6,0,6.9c-0.1,2.1-0.1,4.3-0.6,6.4c-0.3,1.1-0.7,2.2-1,3.3
					c-0.1,0.3,0.3,0.6,0.6,0.3c0.8-0.8,1.1-1.8,1.4-2.8c0.2-1,0.4-2.1,0.4-3.2c0.2-2.3,0.2-4.7,0-7c-0.1-1.3-0.3-2.6-0.5-3.9
					C37,30.8,36.7,30.8,36.7,30.9L36.7,30.9z"/>
			</g>
		</g>
		<g class="st12">
			<path class="st13" d="M18.8,44.8c-0.1,0.1-0.2,0.2-0.2,0.3c0,0.1,0,0.2,0.1,0.3c0.4,0.8,1.2,1.3,2.1,1.2c0.2,0,0.5-0.1,0.6-0.3
				c0.1-0.3,0-0.6-0.3-0.7c-0.3-0.2-0.7-0.3-1-0.4c-0.2-0.1-0.5-0.3-0.7-0.3C19.2,44.8,18.9,44.7,18.8,44.8z"/>
			<path class="st13" d="M21.3,48.1c0.2-0.3,0.8-0.3,1,0c0.3,0.3,0.3,0.9,0.1,1.2c-0.3,0.3-0.9,0.4-1.2,0C20.9,49,21,48.3,21.3,48.1
				"/>
			<path class="st13" d="M23.7,45.5c-0.2,0-0.3,0-0.5-0.1c-0.1-0.1-0.2-0.2-0.3-0.4c-0.1-0.1-0.1-0.2-0.1-0.3c0-0.1,0-0.2,0.1-0.3
				c0.2-0.2,0.5-0.4,0.8-0.3c0.3,0.1,0.5,0.4,0.5,0.7S23.9,45.5,23.7,45.5"/>
			<path class="st13" d="M14.8,42.7c0.2,0.3,0.4,0.6,0.4,1c0,0.3-0.1,0.7-0.3,1c-0.3,0.3-0.8,0.4-1.2,0.3s-0.8-0.4-1.1-0.6
				c-0.3-0.3-0.7-0.6-0.9-1c-0.3-0.4-0.4-0.9-0.1-1.3c0.2-0.2,0.4-0.3,0.7-0.4c0.4,0,0.7,0.1,1.1,0.2c0.4,0.1,0.7,0.2,1.1,0.5
				C14.5,42.3,14.7,42.5,14.8,42.7z"/>
			<path class="st13" d="M21.1,42.3c0.1-0.1,0.2-0.1,0.3-0.1c0.1,0,0.2,0.1,0.2,0.2c0,0.1,0,0.1-0.1,0.2c-0.1,0.1-0.4,0.2-0.5,0
				c0,0-0.1-0.1-0.1-0.2C21,42.4,21,42.3,21.1,42.3"/>
			<path class="st13" d="M17.2,47.7c0-0.2,0-0.3,0.1-0.5s0.3-0.2,0.4-0.1c0.1,0,0.1,0.1,0.2,0.2c0.1,0.2,0,0.6-0.3,0.7
				c-0.1,0-0.2,0-0.2,0C17.3,47.9,17.3,47.9,17.2,47.7"/>
			<path class="st13" d="M26.7,50.1c-0.1-0.1-0.2-0.2-0.2-0.3c0-0.1,0-0.3,0.2-0.3c0.1,0,0.1,0,0.2,0c0.2,0.1,0.4,0.4,0.3,0.6
				c0,0.1-0.1,0.1-0.1,0.2C26.9,50.2,26.8,50.2,26.7,50.1"/>
			<path class="st13" d="M25.4,48.2c-0.2,0.1-0.4,0.1-0.5,0.1c-0.2,0-0.3-0.2-0.3-0.4c0-0.1,0.1-0.2,0.1-0.2c0.2-0.2,0.6-0.2,0.8,0
				c0.1,0.1,0.1,0.2,0.1,0.3C25.7,48,25.6,48.1,25.4,48.2"/>
			<path class="st13" d="M16.4,45c-0.1-0.2-0.2-0.3-0.1-0.5c0-0.2,0.2-0.3,0.4-0.3c0.1,0,0.2,0,0.3,0.1c0.2,0.2,0.3,0.6,0,0.8
				c-0.1,0.1-0.2,0.1-0.3,0.1C16.6,45.3,16.5,45.2,16.4,45"/>
			<path class="st13" d="M16.1,43c-0.1-0.1-0.2-0.2-0.2-0.3c0-0.1,0-0.3,0.1-0.3c0.1,0,0.1,0,0.2,0c0.2,0.1,0.3,0.3,0.2,0.5
				c0,0.1-0.1,0.1-0.1,0.1C16.3,43.1,16.2,43.1,16.1,43"/>
			<path class="st13" d="M19.6,47.5c-0.1,0-0.1-0.1-0.1-0.2c0-0.1,0-0.1,0.1-0.2c0,0,0.1,0,0.1,0c0.1,0,0.2,0.2,0.1,0.3
				c0,0,0,0.1-0.1,0.1S19.6,47.5,19.6,47.5"/>
			<path class="st13" d="M20.5,44c0,0-0.1-0.1-0.1-0.1c0,0,0-0.1,0.1-0.1c0,0,0,0,0.1,0c0.1,0,0.1,0.1,0.1,0.2
				C20.6,44,20.6,44,20.5,44C20.6,44,20.5,44,20.5,44"/>
			<path class="st13" d="M23.3,46.3c0.1,0,0.2,0,0.3,0.1c0.1,0.1,0.1,0.2,0,0.3c0,0-0.1,0.1-0.1,0.1c-0.2,0-0.4-0.1-0.4-0.2
				c0,0,0-0.1,0-0.2S23.2,46.3,23.3,46.3"/>
		</g>
	</g>
	<g>
		<g>
			<path class="st0" d="M100.7,18c0.4-0.3-0.2-1.9-0.3-2.3c-0.3-1.1-0.6-2.2-0.9-3.2c-0.7-2.7-1.3-5.4-2-8.1
				c-0.5-1.7-2.1-2.4-3.6-1.5c-0.7,0.4-1.3,1.1-1.7,1.7c-3.3,4.6-5.1,11.2-5.7,16.8C86,26.8,87,33.2,89.4,38.1
				c1.4,2.9,4.7,2.4,7.5,2.5c2.4,0.1,4.8-0.2,7.1-0.7c9.6-2.3,17.4-11.7,18.9-21.4c0.3-2.1,0.2-4.5-1.4-5.9
				c-2.5-2.3-6.7-1.3-9.6-0.3C108,13.6,104.2,15.7,100.7,18z"/>
			<g class="st10">
				<path class="st0" d="M86.5,21.3c0.2-2.4,0.7-5,1.4-7.5c-0.5,8.1-0.6,19,1.6,24.5c0-0.1-0.1-0.1-0.1-0.2
					C87,33.2,86,26.8,86.5,21.3z"/>
				<path class="st0" d="M104.3,21.3c-0.1,0.3-0.2,0.6-0.4,0.7c-0.6,0.5-1.1,0-1.7-0.2c-0.7-0.2-1.5,0-2.1,0.4
					c-0.5,0.4-0.9,0.8-1.2,1.3c-0.1,0.2-0.4,0.1-0.4-0.1c-0.3-0.8-0.1-1.7-0.1-2.5c0-1-0.1-2-0.2-2.9c-0.4-3.9-1.2-7.7-1.8-11.6
					c-0.2-1.3-0.5-2.7-1.8-3.2C94.3,3.2,94.1,3,94,2.8c0,0,0,0,0-0.1c1.3-0.7,2.6-0.3,3.2,0.8c0.1,0.2,0.3,0.5,0.3,0.8
					c0.7,2.7,1.3,5.4,2,8.1c0.3,1.1,0.6,2.2,0.9,3.2c0.1,0.4,0.7,2,0.3,2.3c1.8-1.2,3.7-2.3,5.7-3.3c1.5-0.8,3-1.4,4.5-2
					c-1,0.4-1.9,0.9-2.7,1.6C106,15.9,104.8,18.6,104.3,21.3z"/>
				<path class="st0" d="M107.4,30.6c1-0.7,1.9-1.5,2.7-2.4s1.2-2.1,1.1-3.3c-0.1-0.8-0.4-1.5-0.6-2.3s0-1.7,0.7-2.2
					c1-0.6,2.2,0.2,3.3,0.4c2.6,0.5,4.5-1.6,5.7-3.7c0.2-0.4,0.4-0.8,0.6-1.2c0.4-1,0.7-2,0.5-3.1c0-0.1-0.1-0.3-0.1-0.4
					c0,0,0.1,0.1,0.1,0.1c0.4,0.4,0.8,0.9,1,1.4c0.6,1.3,0.6,3,0.4,4.5c-1.5,9.7-9.3,19.1-18.9,21.4c-2.3,0.6-4.7,0.8-7.1,0.7
					c-0.9,0-1.9,0-2.8,0c-1.1,0-2.1-0.2-3-0.7c4.3-0.4,8.1-3.2,11.6-5.8C104.3,33,105.8,31.8,107.4,30.6z"/>
			</g>
			<g class="st11">
				<path class="st0" d="M89.5,38.4c0-0.1-0.1-0.1-0.1-0.2C87,33.2,86,26.8,86.5,21.3c0.2-2.4,0.7-5,1.4-7.5
					C87.4,21.9,87.3,32.8,89.5,38.4z"/>
				<path class="st0" d="M94.7,40.1c4-1.6,8.6-1.2,12.3-3.3c1.3-0.7,2.5-1.7,3.6-2.8c1.8-1.6,3.8-3.6,3.6-6.1c0-0.4-0.1-0.8,0-1.2
					c0.2-0.6,0.7-1,1.3-1.2c0.6-0.2,1.2-0.3,1.8-0.4c2.5-0.8,3.8-3.4,4.5-5.9c0.2-0.6,0.4-1.2,0.5-1.9c0.2-1.1,0.3-2.2,0.2-3.3
					c0,0,0-0.1,0-0.2c0.6,1.3,0.6,3,0.4,4.5c-1.5,9.7-9.3,19.1-18.9,21.4c-2.3,0.6-4.7,0.8-7.1,0.7c-0.9,0-1.9,0-2.8,0
					C94.2,40.4,94.5,40.2,94.7,40.1z"/>
				<path class="st0" d="M99.5,12.5c0.3,1.1,0.6,2.2,0.9,3.2c0.1,0.4,0.7,2,0.3,2.3c1.8-1.2,3.7-2.3,5.7-3.3
					c-0.1,0.1-0.1,0.1-0.2,0.2c-0.1,0.1-0.2,0.2-0.3,0.3c-0.7,0.8-1.4,1.7-1.7,2.8c-0.1,0.5-0.2,1-0.4,1.4c-0.2,0.4-0.8,0.8-1.2,0.6
					c-0.8-0.3-1.7-0.2-2.4,0.4c-0.2,0.2-0.6,0-0.8-0.3c-0.1-0.3-0.1-0.6-0.1-0.9C100,13.9,97.2,9,97.2,3.9c0-0.1,0-0.2,0-0.3
					c0.1,0.2,0.3,0.5,0.3,0.8C98.2,7,98.8,9.8,99.5,12.5z"/>
			</g>
			<path class="st4" d="M94.7,7.3C94.5,7,94.3,6.6,94,6.5c-0.2,0-0.3,0-0.5,0.1c-0.6,0.2-1.1,0.8-1.5,1.3c-1.1,1.4-2.1,3-2.6,4.7
				c-0.1,0.4-0.2,0.9,0,1.3c0.1,0.1,0.2,0.3,0.3,0.3c0.2,0,0.3-0.1,0.5-0.2c1.3-0.9,1.8-2.6,2.7-3.9c0.2-0.3,0.4-0.5,0.6-0.7
				c0.3-0.2,0.6-0.2,0.9-0.1c0.4,0.1,0.6,0.6,0.7,1c0.1,0.4,0.1,0.9,0.3,1.3c0.2,0.4,0.4-0.2,0.4-0.4c0-0.2,0-0.4-0.1-0.6
				c0-0.2-0.1-0.4-0.1-0.7c-0.1-0.4-0.2-0.9-0.3-1.3C95,8.2,94.9,7.7,94.7,7.3z"/>
			<path class="st1" d="M97.7,40.8c-0.3,0-0.6,0-0.8,0c-0.4,0-0.8,0-1.3,0c-2.4,0-5.1,0-6.3-2.6c-2.3-4.8-3.4-11.2-2.9-16.9
				C87,14.9,89.1,8.6,92,4.4c0.4-0.6,1-1.3,1.8-1.8c0.8-0.4,1.6-0.5,2.3-0.2c0.7,0.3,1.3,1,1.5,1.8c0.3,1.3,0.7,2.7,1,4
				c0.3,1.4,0.7,2.8,1,4.2c0.2,0.6,0.4,1.3,0.5,1.9c0.1,0.4,0.3,0.9,0.4,1.3c0,0,0,0.1,0.1,0.2c0.2,0.6,0.4,1.3,0.4,1.7
				c3.8-2.5,7.4-4.3,10.8-5.5c4.6-1.6,7.8-1.4,9.7,0.3c1.7,1.6,1.7,4.2,1.4,6c-0.7,4.8-3,9.6-6.4,13.6c-3.5,4-8,6.9-12.6,8
				C102,40.5,99.9,40.8,97.7,40.8z M96.1,40.5c0.3,0,0.5,0,0.8,0c2.4,0.1,4.8-0.2,7-0.7c4.6-1.1,9-3.9,12.4-7.9
				c3.4-3.9,5.6-8.7,6.4-13.4c0.3-1.8,0.3-4.3-1.3-5.8c-1.8-1.7-4.9-1.8-9.4-0.3c-3.5,1.2-7.2,3-11.2,5.7l0,0l0,0
				c-0.1,0-0.2,0-0.2,0s0-0.2,0-0.2c0.2-0.1,0.1-0.8-0.3-1.9c0-0.1-0.1-0.2-0.1-0.2c-0.1-0.4-0.2-0.9-0.4-1.3
				c-0.2-0.6-0.4-1.3-0.5-1.9c-0.4-1.4-0.7-2.8-1-4.2c-0.3-1.3-0.6-2.6-1-4C97.2,3.6,96.7,3,96,2.7c-0.6-0.3-1.4-0.2-2,0.2
				c-0.7,0.4-1.3,1.1-1.7,1.7c-2.9,4.1-5,10.4-5.6,16.7c-0.5,5.6,0.6,12,2.9,16.7c1.2,2.4,3.7,2.4,6.1,2.4
				C95.8,40.5,95.9,40.5,96.1,40.5z"/>
			<path class="st4" d="M115.9,13.4c0.5,0,1,0,1.5,0.1s1,0.5,1.1,1c0.2,0.5,0,1-0.2,1.5c-0.8,1.6-2.6,2.6-4.4,2.4
				c-0.8-0.1-1.5-0.4-2.2-0.4c-1.2,0-2.3,0.6-3.5,0.5c-0.2,0-0.3-0.1-0.4-0.2c-0.1-0.1-0.1-0.2-0.1-0.3c-0.1-0.5,0-1,0.3-1.5
				c0.5-0.9,1.3-1.8,2.3-2.2c0.4-0.2,1-0.2,1.4-0.3c0.7-0.1,1.3-0.3,2-0.4C114.4,13.5,115.1,13.4,115.9,13.4z"/>
			<path class="st4" d="M103.4,24.2c-0.6,0-1.1-0.5-1.7-0.6c-0.8-0.2-1.6,0.2-2.2,0.7c-0.6,0.5-1.2,1.1-1.9,1.5
				C97.3,26,97,26.1,96.7,26c-0.2-0.1-0.3-0.3-0.3-0.6c-0.2-1-0.4-2.1-0.5-3.2c-0.1-1.7-0.6-3.7-1.9-4.8c-1-0.8-1.7-0.6-2.7,0.1
				c-1.1,0.9-1.7,2.4-1.8,3.9c-0.3,4-0.1,7.9,0.2,11.9c0.1,1.5,0.5,3.4,1.9,4c1.1,0.5,2.4-0.1,3.5-0.7c4.2-2.2,8.2-4.8,12-7.6
				c0.6-0.4,1.1-0.8,1.5-1.4c0.3-0.5,0.4-1,0.5-1.6c0.2-1.3,0.1-2.7-1-3.5c-1-0.8-2.1,0.1-2.9,0.8C104.7,23.8,104.1,24.3,103.4,24.2
				z"/>
		</g>
		<g class="st11">
			<g>
				<path class="st3" d="M93.6,5.2C93,5.6,92.5,6,92,6.5c-0.5,0.5-0.9,1.1-1.3,1.7c-0.7,1.2-1.3,2.5-1.3,4c0,0.3,0.4,0.4,0.5,0.1
					c0.6-1.2,1-2.4,1.6-3.6c0.7-1.1,1.5-2.1,2.4-3.1C94.2,5.4,93.9,5,93.6,5.2L93.6,5.2z"/>
			</g>
			<g>
				<path class="st3" d="M94.5,9.2c0.1,0.1,0.1,0.3,0.1,0.4c0,0.1,0,0.1,0,0.2c0,0.1,0,0,0,0c0,0,0,0.1,0,0.1c0,0.1,0,0.1,0,0.2
					c0,0,0,0.1,0,0c0,0.1,0,0.2,0,0.2c0,0.1,0,0.2,0.1,0.4c0,0.1,0.1,0.2,0.2,0.2c0.1,0,0.2,0,0.2-0.1c0.1-0.3,0.2-0.6,0.1-1
					c-0.1-0.3-0.2-0.6-0.3-0.9c-0.1-0.1-0.2-0.2-0.3-0.1C94.5,9,94.4,9.1,94.5,9.2L94.5,9.2z"/>
			</g>
			<g>
				<path class="st3" d="M118.4,13c-0.2-0.1-0.4-0.1-0.6-0.1c-0.2,0-0.4,0-0.6,0c-0.2,0-0.4,0.1-0.6,0.1c-0.2,0.1-0.4,0.2-0.6,0.3
					c-0.2,0.1-0.1,0.4,0.1,0.4c0.2,0,0.4,0,0.6,0c0.1,0,0.2,0,0.3,0c0.1,0,0.1,0,0.2,0c0.1,0,0,0,0.1,0c0.2,0,0.4,0,0.6,0
					c0.2,0,0.4,0,0.6,0c0.1,0,0.3-0.1,0.3-0.3C118.7,13.2,118.6,13.1,118.4,13L118.4,13z"/>
			</g>
			<g>
				<path class="st3" d="M114.1,13.8c-0.6-0.1-1.1,0.1-1.6,0.3c-0.5,0.2-1,0.4-1.5,0.6c-1,0.4-2,0.9-2.8,1.7c-0.2,0.1,0,0.4,0.2,0.3
					c0.5-0.1,1-0.3,1.5-0.5c0.5-0.2,1-0.4,1.5-0.6c0.5-0.2,1-0.4,1.4-0.6c0.5-0.2,1-0.4,1.4-0.8C114.4,14,114.3,13.8,114.1,13.8
					L114.1,13.8z"/>
			</g>
			<g>
				<path class="st3" d="M89.3,20.2c-0.2,1.2-0.4,2.3-0.5,3.5c-0.1,1.2-0.1,2.4-0.1,3.6c0,2.2,0.1,4.5,0.5,6.7
					c0.2,1.2,0.6,2.4,1.4,3.2c0.3,0.2,0.6,0,0.6-0.3c-0.2-1-0.6-1.9-0.9-2.9c-0.3-1-0.4-2-0.5-3c-0.2-2.3-0.3-4.5-0.3-6.8
					c0-1.3,0-2.6,0-3.9C89.6,20.1,89.3,20,89.3,20.2L89.3,20.2z"/>
			</g>
		</g>
		<g class="st12">
			<path class="st13" d="M105.4,34.6c0.1,0.1,0.2,0.2,0.2,0.3c0,0.1,0,0.2-0.1,0.3c-0.4,0.8-1.2,1.3-2.1,1.2c-0.2,0-0.5-0.1-0.6-0.3
				c-0.1-0.3,0-0.6,0.3-0.7c0.3-0.2,0.7-0.3,1-0.4c0.2-0.1,0.5-0.3,0.7-0.3C104.9,34.6,105.2,34.5,105.4,34.6z"/>
			<path class="st13" d="M102.8,37.9c-0.2-0.3-0.8-0.3-1,0c-0.3,0.3-0.3,0.9-0.1,1.2c0.3,0.3,0.9,0.4,1.2,0
				C103.2,38.8,103.2,38.1,102.8,37.9"/>
			<path class="st13" d="M100.4,35.3c0.2,0,0.3,0,0.5-0.1c0.1-0.1,0.2-0.2,0.3-0.4c0.1-0.1,0.1-0.2,0.1-0.3c0-0.1,0-0.2-0.1-0.3
				c-0.2-0.2-0.5-0.4-0.8-0.3c-0.3,0.1-0.5,0.4-0.5,0.7C100,35,100.2,35.2,100.4,35.3"/>
			<path class="st13" d="M109.3,32.4c-0.2,0.3-0.4,0.6-0.4,1c0,0.3,0.1,0.7,0.3,1c0.3,0.3,0.8,0.4,1.2,0.3c0.4-0.1,0.8-0.4,1.1-0.6
				c0.3-0.3,0.7-0.6,0.9-1c0.3-0.4,0.4-0.9,0.1-1.3c-0.2-0.2-0.4-0.3-0.7-0.4c-0.4,0-0.7,0.1-1.1,0.2c-0.4,0.1-0.7,0.2-1.1,0.5
				C109.6,32.1,109.5,32.3,109.3,32.4z"/>
			<path class="st13" d="M103,32c-0.1-0.1-0.2-0.1-0.3-0.1c-0.1,0-0.2,0.1-0.2,0.2c0,0.1,0,0.1,0.1,0.2c0.1,0.1,0.4,0.2,0.5,0
				c0,0,0.1-0.1,0.1-0.2S103.1,32.1,103,32"/>
			<path class="st13" d="M106.9,37.5c0-0.2,0-0.3-0.1-0.5c-0.1-0.1-0.3-0.2-0.4-0.1c-0.1,0-0.1,0.1-0.2,0.2c-0.1,0.2,0,0.6,0.3,0.7
				c0.1,0,0.2,0,0.2,0C106.9,37.7,106.9,37.6,106.9,37.5"/>
			<path class="st13" d="M97.4,39.9c0.1-0.1,0.2-0.2,0.2-0.3c0-0.1,0-0.3-0.2-0.3c-0.1,0-0.1,0-0.2,0c-0.2,0.1-0.4,0.4-0.3,0.6
				c0,0.1,0.1,0.1,0.1,0.2C97.3,40,97.4,39.9,97.4,39.9"/>
			<path class="st13" d="M98.7,37.9c0.2,0.1,0.4,0.1,0.5,0.1c0.2,0,0.3-0.2,0.3-0.4c0-0.1-0.1-0.2-0.1-0.2c-0.2-0.2-0.6-0.2-0.8,0
				c-0.1,0.1-0.1,0.2-0.1,0.3C98.5,37.8,98.6,37.9,98.7,37.9"/>
			<path class="st13" d="M107.8,34.8c0.1-0.2,0.2-0.3,0.1-0.5c0-0.2-0.2-0.3-0.4-0.3c-0.1,0-0.2,0-0.3,0.1c-0.2,0.2-0.3,0.6,0,0.8
				c0.1,0.1,0.2,0.1,0.3,0.1C107.6,35,107.7,35,107.8,34.8"/>
			<path class="st13" d="M108,32.8c0.1-0.1,0.2-0.2,0.2-0.3c0-0.1,0-0.3-0.1-0.3c-0.1,0-0.1,0-0.2,0c-0.2,0.1-0.3,0.3-0.2,0.5
				c0,0.1,0.1,0.1,0.1,0.1C107.9,32.9,108,32.9,108,32.8"/>
			<path class="st13" d="M104.6,37.3c0.1,0,0.1-0.1,0.1-0.2c0-0.1,0-0.1-0.1-0.2c0,0-0.1,0-0.1,0c-0.1,0-0.2,0.2-0.1,0.3
				c0,0,0,0.1,0.1,0.1C104.5,37.3,104.5,37.3,104.6,37.3"/>
			<path class="st13" d="M103.7,33.8c0,0,0.1-0.1,0.1-0.1c0,0,0-0.1-0.1-0.1c0,0,0,0-0.1,0c-0.1,0-0.1,0.1-0.1,0.2
				C103.5,33.8,103.6,33.8,103.7,33.8C103.6,33.8,103.6,33.8,103.7,33.8"/>
			<path class="st13" d="M100.9,36c-0.1,0-0.2,0-0.3,0.1c-0.1,0.1-0.1,0.2,0,0.3c0,0,0.1,0.1,0.1,0.1c0.2,0,0.4-0.1,0.4-0.2
				c0,0,0-0.1,0-0.2S101,36,100.9,36"/>
		</g>
	</g>
	<g class="st14">
		<g>
			<path class="st3" d="M45.6,58.2c0.4-0.7,0.5-1.5,0.8-2.2c0.4-0.8,0.9-1.5,1.5-2.1c1.3-1.3,2.9-2.1,4.6-2.6
				c3.6-1.2,7.5-1.3,11.2-1.9c0.3,0,0.3-0.5,0-0.6c-4.1-0.8-8.9,0-12.7,1.6c-1.7,0.7-3.3,1.7-4.4,3.2c-0.9,1.1-1.9,3-1.4,4.5
				C45.3,58.3,45.6,58.4,45.6,58.2L45.6,58.2z"/>
		</g>
		<g>
			<path class="st3" d="M66.6,49.4c1.3,0,2.7,0.3,4,0.2c0.4,0,0.6-0.6,0.1-0.8c-1.4-0.4-2.8-0.1-4.2,0.1
				C66.2,48.9,66.3,49.4,66.6,49.4L66.6,49.4z"/>
		</g>
	</g>
	<g>
		<g>
			<path class="st0" d="M44.8,37.5C44.8,37.5,44.8,37.5,44.8,37.5C44.8,37.5,44.8,37.5,44.8,37.5c0.1-1.8,0.8-3.6,2.2-5
				c0.7-0.7,1.6-1.3,2.5-1.6c0.9-0.4,1.8-0.5,2.8-0.5c0.2,0,0.5,0,0.7,0c0.5,0,0.9,0.1,1.4,0.3c1.2,0.3,2.2,1,3.1,1.9
				c0.2,0.2,0.3,0.3,0.5,0.5c0,0,0.1,0.1,0.1,0.1c0.1,0.1,0.2,0.3,0.3,0.4c0,0,0.1,0.1,0.1,0.1c0.1,0.2,0.2,0.4,0.3,0.5
				c0,0.1,0.1,0.1,0.1,0.2c0.1,0.1,0.1,0.3,0.2,0.4c0,0.1,0.1,0.1,0.1,0.2c0.1,0.2,0.1,0.4,0.2,0.6c0,0.1,0,0.2,0.1,0.2
				c0,0.1,0.1,0.2,0.1,0.4c0,0.1,0,0.2,0.1,0.3c0,0.1,0,0.2,0,0.3c0,0.2,0,0.3,0,0.5c0,0.1,0,0.2,0,0.3c0,0.1,0,0.2,0,0.4
				c0,0.1,0,0.1,0,0.2c0,0.4-0.1,0.8-0.2,1.3c0,0.1,0,0.1,0,0.2c0,0.1-0.1,0.3-0.1,0.4l0,0l0,0c-0.3,1.1-1,2.1-1.8,3
				c-2.9,2.9-7.6,2.9-10.5,0C45.4,41.5,44.7,39.4,44.8,37.5z"/>
			<g>
				<path class="st0" d="M49.7,31.9c1-0.4,2.1-0.6,3.1-0.6c0.3,0,0.5,0,0.8,0c0.5,0,1.1,0.2,1.6,0.3c1.1,0.3,2.1,0.9,3,1.6
					c0,0-0.1-0.1-0.1-0.1c0,0-0.1-0.1-0.1-0.1c-0.1-0.2-0.3-0.3-0.5-0.5c-0.9-0.9-2-1.5-3.1-1.9c-0.5-0.1-0.9-0.2-1.4-0.3
					c-0.2,0-0.5,0-0.7,0c-1,0-1.9,0.2-2.8,0.5s-1.7,0.9-2.5,1.6c-1.4,1.4-2.1,3.2-2.2,5c0,0,0,0,0,0c0,0,0,0,0,0c0,0.1,0,0.1,0,0.2
					c0.3-1.4,1.1-2.8,2.2-3.9C47.8,32.9,48.7,32.3,49.7,31.9z"/>
			</g>
			<g>
				<path class="st3" d="M47.9,34.3c-2.4,2.4-2.4,6.3,0,8.6c2.4,2.4,6.3,2.4,8.6,0c2.4-2.4,2.4-6.3,0-8.6
					C54.2,31.9,50.3,31.9,47.9,34.3z"/>
				<g>
					<path class="st15" d="M56.6,35.4c-2.4-2.4-6.3-2.4-8.6,0c-0.7,0.7-1.5,2.1-1.8,3c0.3-1.1,1-3.3,1.8-4.1c2.4-2.4,6.3-2.4,8.6,0
						c1.7,1.7,2.2,4.1,1.5,6.2C58.5,38.5,58.1,36.9,56.6,35.4z"/>
				</g>
				<g>
					<g>
						<path class="st16" d="M51.3,37.2c-1,1.6-0.6,3.7,1,4.7c1.6,1,3.7,0.6,4.7-1c1-1.6,0.6-3.7-1-4.7
							C54.4,35.1,52.3,35.6,51.3,37.2z"/>
						<path class="st17" d="M52.3,37.8c-0.7,1-0.4,2.4,0.7,3.1c1,0.7,2.4,0.4,3.1-0.7c0.7-1,0.4-2.4-0.7-3.1
							C54.3,36.5,53,36.8,52.3,37.8z"/>
					</g>
					<path class="st3" d="M52.7,36.6c-0.3,0.5-0.2,1.2,0.3,1.6c0.5,0.3,1.2,0.2,1.6-0.3c0.3-0.5,0.2-1.2-0.3-1.5
						C53.7,36,53,36.1,52.7,36.6z"/>
					<path class="st3" d="M53.8,40.8c-0.2,0.3-0.1,0.6,0.2,0.8c0.3,0.2,0.6,0.1,0.8-0.2s0.1-0.6-0.2-0.8S53.9,40.5,53.8,40.8z"/>
				</g>
				<path class="st1" d="M52.2,44.9c-1.7,0-3.3-0.7-4.5-1.8c-2.5-2.5-2.5-6.5,0-8.9l0,0c2.5-2.5,6.5-2.5,8.9,0
					c1.2,1.2,1.8,2.8,1.8,4.5s-0.7,3.3-1.8,4.5C55.5,44.3,53.9,44.9,52.2,44.9z M48,34.4c-2.3,2.3-2.3,6.1,0,8.4
					c1.1,1.1,2.6,1.7,4.2,1.7s3.1-0.6,4.2-1.7s1.7-2.6,1.7-4.2c0-1.6-0.6-3.1-1.7-4.2C54.1,32.1,50.4,32.1,48,34.4L48,34.4z"/>
			</g>
			<path class="st1" d="M52.2,45.3c-2,0-3.9-0.8-5.4-2.2c-1.5-1.5-2.3-3.5-2.2-5.7l0,0l0,0l0,0c0.1-1.9,0.9-3.7,2.2-5
				c0.7-0.7,1.6-1.3,2.5-1.7c1.1-0.5,2.4-0.6,3.6-0.5c0.5,0,1,0.1,1.4,0.3c1.2,0.4,2.3,1,3.2,1.9c0.1,0.1,0.3,0.3,0.5,0.5
				c0,0,0.1,0.1,0.1,0.1l0,0c0.1,0.1,0.2,0.3,0.3,0.4l0,0c0,0,0,0,0,0.1c0.1,0.2,0.2,0.4,0.3,0.6c0,0,0,0.1,0.1,0.1l0,0.1
				c0.1,0.1,0.1,0.3,0.2,0.4l0,0c0,0.1,0,0.1,0.1,0.2c0.1,0.2,0.1,0.4,0.2,0.6c0,0.1,0,0.1,0,0.2l0,0.1c0,0.1,0.1,0.3,0.1,0.4
				c0,0.1,0,0.2,0.1,0.3c0,0.1,0,0.2,0,0.3c0,0.2,0,0.3,0,0.5l0,0.1c0,0.1,0,0.1,0,0.2c0,0.1,0,0.2,0,0.4c0,0.1,0,0.2,0,0.2
				c0,0.4-0.1,0.9-0.2,1.3c0,0.1,0,0.1,0,0.2c0,0.1-0.1,0.3-0.1,0.4c-0.4,1.2-1,2.2-1.9,3.1C56.2,44.5,54.3,45.3,52.2,45.3z
				 M45,37.4L45,37.4c-0.1,2.1,0.7,4,2.1,5.4c1.4,1.4,3.2,2.1,5.2,2.1s3.8-0.8,5.2-2.1c0.8-0.8,1.4-1.8,1.8-2.9
				c0-0.1,0.1-0.3,0.1-0.4c0-0.1,0-0.1,0-0.2c0.1-0.4,0.2-0.8,0.2-1.2c0-0.1,0-0.1,0-0.2c0-0.1,0-0.2,0-0.4c0-0.1,0-0.1,0-0.2l0-0.1
				c0-0.2,0-0.3,0-0.5c0-0.1,0-0.2,0-0.3c0-0.1,0-0.2-0.1-0.3c0-0.1-0.1-0.2-0.1-0.4l0-0.1c0,0,0-0.1,0-0.1
				c-0.1-0.2-0.1-0.4-0.2-0.5c0-0.1,0-0.1-0.1-0.2l0,0c-0.1-0.1-0.1-0.3-0.2-0.4l0-0.1c0,0,0-0.1-0.1-0.1c-0.1-0.2-0.2-0.4-0.3-0.5
				c0,0,0,0,0-0.1l0,0c-0.1-0.1-0.2-0.3-0.3-0.4l0,0c0,0-0.1-0.1-0.1-0.1c-0.2-0.2-0.3-0.4-0.4-0.5c-0.9-0.9-1.9-1.5-3.1-1.8
				c-0.4-0.1-0.9-0.2-1.4-0.3c-0.2,0-0.5,0-0.7,0c-0.9,0-1.9,0.2-2.7,0.5c-0.9,0.4-1.7,0.9-2.4,1.6C45.8,33.9,45,35.6,45,37.4
				L45,37.4L45,37.4z"/>
		</g>
		<g class="st18">
			<g>
				<path class="st3" d="M46.1,35c0.2-0.2,0.4-0.5,0.6-0.8c0.2-0.3,0.4-0.5,0.7-0.7c0.5-0.5,1-0.9,1.6-1.2c0.6-0.4,1.3-0.6,2-0.8
					c0.7-0.2,1.4-0.1,2.1-0.2c0.1,0,0.1-0.2,0-0.3c-0.7-0.3-1.5-0.1-2.3,0c-0.8,0.2-1.5,0.4-2.2,0.8c-0.6,0.4-1.2,0.8-1.6,1.4
					c-0.2,0.3-0.4,0.5-0.6,0.8c-0.2,0.3-0.4,0.6-0.4,0.9C45.9,35,46,35,46.1,35L46.1,35z"/>
			</g>
			<g>
				<path class="st3" d="M54.2,31.3c0.2,0,0.3,0.1,0.4,0.2c0.1,0.1,0.3,0.1,0.4,0.2c0.1,0,0.3,0.1,0.4,0.2c0.2,0.1,0.4,0.1,0.5,0.1
					c0,0,0.1-0.1,0.1-0.1c0-0.2-0.2-0.3-0.3-0.4c-0.2-0.1-0.3-0.1-0.5-0.2C54.9,31.2,54.5,31.2,54.2,31.3
					C54.2,31.2,54.2,31.3,54.2,31.3L54.2,31.3z"/>
			</g>
		</g>
	</g>
	<g>
		<g>
			<path class="st0" d="M70.4,35.8C70.4,35.8,70.4,35.8,70.4,35.8C70.4,35.8,70.4,35.8,70.4,35.8c0.1-1.8,0.8-3.6,2.2-5
				c0.7-0.7,1.6-1.3,2.5-1.6c0.9-0.4,1.8-0.5,2.8-0.5c0.2,0,0.5,0,0.7,0c0.5,0,0.9,0.1,1.4,0.3c1.2,0.3,2.2,1,3.1,1.9
				c0.2,0.2,0.3,0.3,0.5,0.5c0,0,0.1,0.1,0.1,0.1c0.1,0.1,0.2,0.3,0.3,0.4C84,32,84,32,84,32c0.1,0.2,0.2,0.4,0.3,0.5
				c0,0.1,0.1,0.1,0.1,0.2c0.1,0.1,0.1,0.3,0.2,0.4c0,0.1,0.1,0.1,0.1,0.2c0.1,0.2,0.1,0.4,0.2,0.6c0,0.1,0,0.2,0.1,0.2
				c0,0.1,0.1,0.2,0.1,0.4c0,0.1,0,0.2,0.1,0.3c0,0.1,0,0.2,0,0.3c0,0.2,0,0.3,0,0.5c0,0.1,0,0.2,0,0.3c0,0.1,0,0.2,0,0.4
				c0,0.1,0,0.1,0,0.2c0,0.4-0.1,0.8-0.2,1.3c0,0.1,0,0.1,0,0.2c0,0.1-0.1,0.3-0.1,0.4l0,0l0,0c-0.3,1.1-1,2.1-1.8,3
				c-2.9,2.9-7.6,2.9-10.5,0C71,39.8,70.3,37.8,70.4,35.8z"/>
			<g>
				<path class="st0" d="M75.3,30.3c1-0.4,2.1-0.6,3.1-0.6c0.3,0,0.5,0,0.8,0c0.5,0,1.1,0.2,1.6,0.3c1.1,0.3,2.1,0.9,3,1.6
					c0,0-0.1-0.1-0.1-0.1c0,0-0.1-0.1-0.1-0.1c-0.1-0.2-0.3-0.3-0.5-0.5c-0.9-0.9-2-1.5-3.1-1.9c-0.5-0.1-0.9-0.2-1.4-0.3
					c-0.2,0-0.5,0-0.7,0c-1,0-1.9,0.2-2.8,0.5s-1.7,0.9-2.5,1.6c-1.4,1.4-2.1,3.2-2.2,5c0,0,0,0,0,0c0,0,0,0,0,0c0,0.1,0,0.1,0,0.2
					c0.3-1.4,1.1-2.8,2.2-3.9C73.4,31.3,74.3,30.7,75.3,30.3z"/>
			</g>
			<g>
				<path class="st3" d="M73.5,32.7c-2.4,2.4-2.4,6.3,0,8.6c2.4,2.4,6.3,2.4,8.6,0c2.4-2.4,2.4-6.3,0-8.6
					C79.7,30.3,75.9,30.3,73.5,32.7z"/>
				<g>
					<path class="st15" d="M82.2,33.8c-2.4-2.4-6.3-2.4-8.6,0c-0.7,0.7-1.5,2.1-1.8,3c0.3-1.1,1-3.3,1.8-4.1c2.4-2.4,6.3-2.4,8.6,0
						c1.7,1.7,2.2,4.1,1.5,6.2C84.1,36.9,83.7,35.3,82.2,33.8z"/>
				</g>
				<g>
					<g>
						<path class="st16" d="M76.9,35.5c-1,1.6-0.6,3.7,1,4.7c1.6,1,3.7,0.6,4.7-1s0.6-3.7-1-4.7C80,33.5,77.9,34,76.9,35.5z"/>
						<path class="st17" d="M77.9,36.2c-0.7,1-0.4,2.4,0.7,3.1c1,0.7,2.4,0.4,3.1-0.7c0.7-1,0.4-2.4-0.7-3.1
							C79.9,34.8,78.5,35.1,77.9,36.2z"/>
					</g>
					<path class="st3" d="M78.3,35c-0.3,0.5-0.2,1.2,0.3,1.6c0.5,0.3,1.2,0.2,1.6-0.3c0.3-0.5,0.2-1.2-0.3-1.5
						C79.3,34.3,78.6,34.5,78.3,35z"/>
					<path class="st3" d="M79.4,39.1c-0.2,0.3-0.1,0.6,0.2,0.8c0.3,0.2,0.6,0.1,0.8-0.2c0.2-0.3,0.1-0.6-0.2-0.8
						S79.5,38.9,79.4,39.1z"/>
				</g>
				<path class="st1" d="M77.8,43.3c-1.7,0-3.3-0.7-4.5-1.8c-2.5-2.5-2.5-6.5,0-8.9l0,0c2.5-2.5,6.5-2.5,8.9,0
					c1.2,1.2,1.8,2.8,1.8,4.5s-0.7,3.3-1.8,4.5C81.1,42.7,79.5,43.3,77.8,43.3z M73.6,32.8c-2.3,2.3-2.3,6.1,0,8.4
					c1.1,1.1,2.6,1.7,4.2,1.7s3.1-0.6,4.2-1.7s1.7-2.6,1.7-4.2s-0.6-3.1-1.7-4.2C79.7,30.5,75.9,30.5,73.6,32.8L73.6,32.8z"/>
			</g>
			<path class="st1" d="M77.8,43.7c-2,0-3.9-0.8-5.4-2.2c-1.5-1.5-2.3-3.5-2.2-5.7h0l0,0l0.1,0l-0.1,0c0,0,0,0,0,0l0,0l0,0
				c0.1-1.9,0.9-3.7,2.2-5.1c0.7-0.7,1.6-1.3,2.5-1.7c1.1-0.5,2.4-0.6,3.6-0.5c0.5,0,1,0.1,1.4,0.3c1.2,0.4,2.3,1,3.2,1.9
				c0.1,0.1,0.3,0.3,0.5,0.5c0,0,0.1,0.1,0.1,0.1c0.1,0.2,0.2,0.3,0.3,0.5l0,0c0,0,0,0,0,0.1c0.1,0.2,0.2,0.4,0.3,0.6
				c0,0,0,0.1,0.1,0.1l0,0.1c0.1,0.1,0.1,0.3,0.2,0.4l0,0.1c0,0,0,0.1,0.1,0.1c0.1,0.2,0.1,0.4,0.2,0.6c0,0.1,0,0.1,0,0.2l0,0.1
				c0,0.1,0.1,0.3,0.1,0.4c0,0.1,0,0.2,0.1,0.3c0,0.1,0,0.2,0,0.3c0,0.2,0,0.3,0,0.5l0,0.1c0,0.1,0,0.1,0,0.2c0,0.1,0,0.2,0,0.4
				c0,0.1,0,0.1,0,0.2c0,0.4-0.1,0.9-0.2,1.3c0,0.1,0,0.1,0,0.2c0,0.1-0.1,0.3-0.1,0.4c-0.4,1.2-1,2.2-1.9,3.1
				C81.7,42.9,79.8,43.7,77.8,43.7z M70.5,35.8L70.5,35.8c-0.1,2.1,0.7,4,2.1,5.4c1.4,1.4,3.2,2.1,5.2,2.1c1.9,0,3.8-0.8,5.2-2.1
				c0.8-0.8,1.4-1.8,1.8-2.9c0-0.1,0.1-0.3,0.1-0.4c0-0.1,0-0.1,0-0.2c0.1-0.4,0.2-0.8,0.2-1.2c0-0.1,0-0.1,0-0.2c0-0.1,0-0.2,0-0.4
				c0-0.1,0-0.1,0-0.2l0-0.1c0-0.2,0-0.3,0-0.5c0-0.1,0-0.2,0-0.3c0-0.1,0-0.2-0.1-0.3c0-0.1-0.1-0.2-0.1-0.4l0-0.1c0,0,0-0.1,0-0.1
				c-0.1-0.2-0.1-0.3-0.2-0.5c0,0,0-0.1-0.1-0.1l0-0.1c-0.1-0.1-0.1-0.3-0.2-0.4l0-0.1c0,0,0-0.1-0.1-0.1c-0.1-0.2-0.2-0.4-0.3-0.5
				c0,0,0,0,0-0.1l0,0c-0.1-0.1-0.2-0.3-0.3-0.4c0-0.1-0.1-0.1-0.1-0.1c-0.2-0.2-0.3-0.4-0.4-0.5c-0.9-0.9-1.9-1.5-3.1-1.8
				c-0.4-0.1-0.9-0.2-1.4-0.3c-1.2-0.1-2.4,0.1-3.4,0.5c-0.9,0.4-1.7,0.9-2.4,1.6C71.4,32.3,70.6,34,70.5,35.8L70.5,35.8z"/>
		</g>
		<g class="st18">
			<g>
				<path class="st3" d="M71.6,33.3c0.2-0.2,0.4-0.5,0.6-0.8c0.2-0.3,0.4-0.5,0.7-0.7c0.5-0.5,1-0.9,1.6-1.2c0.6-0.4,1.3-0.6,2-0.8
					c0.7-0.2,1.4-0.1,2.1-0.2c0.1,0,0.1-0.2,0-0.3c-0.7-0.3-1.5-0.1-2.3,0c-0.8,0.2-1.5,0.4-2.2,0.8c-0.6,0.4-1.2,0.8-1.6,1.4
					c-0.2,0.3-0.4,0.5-0.6,0.8c-0.2,0.3-0.4,0.6-0.4,0.9C71.5,33.3,71.6,33.4,71.6,33.3L71.6,33.3z"/>
			</g>
			<g>
				<path class="st3" d="M79.8,29.7c0.2,0,0.3,0.1,0.4,0.2c0.1,0.1,0.3,0.1,0.4,0.2c0.1,0,0.3,0.1,0.4,0.2c0.2,0.1,0.4,0.1,0.5,0.1
					c0,0,0.1-0.1,0.1-0.1c0-0.2-0.2-0.3-0.3-0.4c-0.2-0.1-0.3-0.1-0.5-0.2C80.5,29.5,80.1,29.6,79.8,29.7
					C79.8,29.6,79.7,29.7,79.8,29.7L79.8,29.7z"/>
			</g>
		</g>
	</g>
	<g class="st12">
		<path class="st13" d="M83.2,79.7c0.2,0.1,0.3,0.3,0.3,0.5c0,0.2-0.1,0.4-0.1,0.6c-0.6,1.5-2.2,2.5-3.8,2.4c-0.5,0-1-0.2-1.2-0.6
			c-0.3-0.5,0-1.1,0.4-1.4c0.5-0.4,1.2-0.5,1.8-0.8c0.5-0.2,0.8-0.5,1.3-0.6C82.3,79.7,82.8,79.5,83.2,79.7z"/>
		<path class="st13" d="M87.9,75.2c0.1,0,0.2,0.1,0.3,0.2s0.1,0.3,0.1,0.4c0,1-0.7,1.8-1.6,2.1c-0.3,0.1-0.6,0.1-0.8-0.1
			c-0.2-0.2-0.2-0.6-0.1-0.9c0.2-0.3,0.6-0.6,0.9-0.8c0.2-0.2,0.4-0.5,0.6-0.6C87.4,75.4,87.7,75.2,87.9,75.2z"/>
		<path class="st13" d="M86.7,79.8c-0.4-0.2-0.9,0-1.1,0.4c-0.2,0.5,0,1,0.5,1.3s1,0,1.2-0.5S87.2,79.9,86.7,79.8"/>
		<path class="st13" d="M83,78.1c0.2,0,0.3-0.1,0.4-0.3c0.1-0.2,0.1-0.3,0.1-0.5c0-0.1,0-0.2,0-0.3c0-0.1-0.1-0.2-0.2-0.2
			c-0.3-0.2-0.7-0.2-0.9,0.1c-0.2,0.2-0.3,0.6-0.2,0.9C82.4,78,82.8,78.2,83,78.1"/>
		<path class="st13" d="M85.5,71.5c-0.1,0.4-0.1,0.8,0,1.2c0.1,0.4,0.4,0.7,0.8,0.8c0.5,0.2,1,0,1.4-0.3c0.4-0.3,0.7-0.7,0.9-1.2
			c0.2-0.5,0.4-0.9,0.5-1.4c0.1-0.5,0-1.1-0.4-1.4c-0.3-0.2-0.6-0.2-0.9-0.1c-0.4,0.1-0.7,0.4-1,0.7c-0.4,0.3-0.7,0.6-0.9,1
			C85.7,71,85.6,71.3,85.5,71.5z"/>
		<path class="st13" d="M84.3,73.6c-0.1,0-0.3,0-0.4,0.1c-0.1,0.1-0.2,0.2-0.1,0.3c0,0.1,0.1,0.1,0.1,0.1c0.2,0.1,0.5,0,0.6-0.2
			c0-0.1,0-0.1,0-0.2C84.5,73.7,84.4,73.6,84.3,73.6"/>
		<path class="st13" d="M88.7,79.6c0-0.2-0.1-0.3-0.3-0.4s-0.4-0.1-0.5,0c-0.1,0.1-0.1,0.2-0.1,0.3c0,0.3,0.3,0.6,0.6,0.6
			c0.1,0,0.2,0,0.3-0.1C88.7,79.9,88.7,79.8,88.7,79.6"/>
		<path class="st13" d="M77,82.3c0.1-0.1,0.1-0.3,0.1-0.5c0-0.2-0.2-0.3-0.3-0.3c-0.1,0-0.2,0-0.2,0.1c-0.2,0.2-0.2,0.5,0,0.7
			c0.1,0.1,0.1,0.1,0.2,0.1S76.9,82.4,77,82.3"/>
		<path class="st13" d="M78.5,84.9c0.2,0,0.4,0,0.6-0.2c0.2-0.1,0.2-0.4,0.1-0.6C79.2,84.1,79.1,84,79,84c-0.3-0.1-0.7,0.1-0.8,0.4
			c0,0.1,0,0.2,0,0.3C78.2,84.8,78.3,84.9,78.5,84.9"/>
		<path class="st13" d="M90.5,74.4c0-0.2,0-0.4-0.1-0.6c-0.1-0.2-0.3-0.3-0.5-0.2c-0.1,0-0.2,0.1-0.2,0.2c-0.2,0.3,0,0.8,0.3,0.9
			c0.1,0,0.2,0.1,0.3,0S90.5,74.6,90.5,74.4"/>
		<path class="st13" d="M88.4,68.6c0-0.1,0.1-0.1,0-0.2c0-0.1-0.1-0.1-0.1-0.1c0,0-0.1,0-0.1,0c-0.1,0.1-0.1,0.2,0,0.3
			c0,0,0.1,0,0.1,0C88.3,68.7,88.4,68.7,88.4,68.6"/>
		<path class="st13" d="M88.2,78.4c0-0.1,0.1-0.1,0-0.2c0-0.1-0.1-0.1-0.1-0.1c0,0-0.1,0-0.1,0c-0.1,0.1-0.1,0.2,0,0.3
			c0,0,0.1,0,0.1,0C88.2,78.5,88.2,78.4,88.2,78.4"/>
		<path class="st13" d="M85.7,75.2c0,0,0-0.1,0-0.1c0,0-0.1-0.1-0.1-0.1c0,0,0,0-0.1,0c-0.1,0.1-0.1,0.2,0,0.2
			C85.6,75.2,85.6,75.2,85.7,75.2C85.7,75.2,85.7,75.2,85.7,75.2"/>
		<path class="st13" d="M83.8,78.7c-0.1,0-0.2,0.1-0.2,0.2c0,0.1,0,0.2,0.1,0.3c0,0,0.1,0,0.2,0c0.2,0,0.3-0.2,0.3-0.4
			c0-0.1,0-0.1-0.1-0.1C84,78.7,83.9,78.7,83.8,78.7"/>
	</g>
</g>
<text transform="matrix(1 0 0 1 3.9904 100.2281)" class="st19 st20 st21">seafood restaurant-</text>
</svg>
